<svg width="16" height="16" viewBox="0 0 16 16" fill="none" xmlns="http://www.w3.org/2000/svg">
<path d="M0 0.857422C0.147319 0.857422 0.294639 0.857422 0.446422 0.857422C0.475886 4.71719 0.50535 8.57695 0.535707 12.5537C1.18231 12.077 1.18231 12.077 1.65734 11.5046C1.72456 11.4117 1.79177 11.3188 1.86102 11.2231C1.98154 11.05 2.1008 10.876 2.21816 10.7007C2.86213 9.74204 3.55018 9.22191 4.67627 8.9544C5.40206 8.76582 6.05837 8.39671 6.48546 7.76685C6.80697 7.20338 7.04599 6.59084 7.30036 5.99476C7.71991 5.01572 8.19005 3.94979 9.1963 3.44667C9.80713 3.37741 10.3039 3.43298 10.8034 3.80381C11.3824 4.32554 11.8147 5.00378 12.2627 5.63662C12.7775 6.39243 12.7775 6.39243 13.4485 7.00131C13.4993 7.03687 13.5502 7.07244 13.6026 7.10908C13.927 7.302 14.2132 7.29791 14.5813 7.29706C14.7299 7.29741 14.7299 7.29741 14.8816 7.29776C15.22 7.29043 15.22 7.29043 15.7141 7.19662C15.7141 8.64035 15.7141 10.0841 15.7141 11.5716C15.1115 11.4711 15.1115 11.4711 14.8575 11.3229C14.8012 11.2906 14.7449 11.2582 14.6869 11.2249C14.6281 11.1902 14.5693 11.1554 14.5087 11.1196C14.4154 11.066 14.4154 11.066 14.3201 11.0114C14.0165 10.8368 13.7155 10.6584 13.4164 10.4761C12.4432 9.88877 11.459 9.5229 10.3131 9.73843C9.14194 10.0449 8.39306 10.8158 7.5836 11.6608C6.20589 13.0946 4.96487 13.8477 2.93383 14.0227C2.85148 14.0299 2.76913 14.0372 2.68429 14.0446C2.52058 14.0585 2.35677 14.0713 2.19287 14.0829C1.68158 14.1245 1.27864 14.2366 0.80356 14.4287C0.715168 14.4287 0.626777 14.4287 0.535707 14.4287C0.535707 14.517 0.535707 14.6054 0.535707 14.6965C5.54456 14.6965 10.5534 14.6965 15.7141 14.6965C15.7141 14.8438 15.7141 14.9911 15.7141 15.1429C10.5284 15.1429 5.34278 15.1429 0 15.1429C0 10.4287 0 5.7145 0 0.857422Z" fill="#83D4CE"/>
<path d="M15.7135 7.64307C15.7724 7.64307 15.8314 7.64307 15.8921 7.64307C15.9093 8.19434 15.9252 8.74564 15.94 9.29699C15.9452 9.48449 15.9508 9.67198 15.9567 9.85946C15.9651 10.1292 15.9723 10.3989 15.9793 10.6686C15.9836 10.7941 15.9836 10.7941 15.988 10.922C15.9898 11.0007 15.9916 11.0793 15.9934 11.1603C15.9954 11.2291 15.9974 11.2979 15.9994 11.3688C15.9814 11.5716 15.9814 11.5716 15.8028 12.018C15.7733 12.9019 15.7439 13.7858 15.7135 14.6965C10.7047 14.6965 5.6958 14.6965 0.535156 14.6965C0.535156 14.6081 0.535156 14.5198 0.535156 14.4287C1.29073 14.1016 2.00072 13.995 2.81749 13.932C5.05166 13.7534 6.33206 12.8798 7.84874 11.2943C8.72363 10.3826 9.6513 9.62441 10.9703 9.57384C12.0383 9.61862 12.8426 10.0317 13.7388 10.5665C14.0598 10.7571 14.3843 10.9411 14.7091 11.1252C14.7984 11.1768 14.7984 11.1768 14.8896 11.2295C15.1694 11.3888 15.3982 11.4927 15.7135 11.5716C15.7135 10.2752 15.7135 8.97876 15.7135 7.64307Z" fill="#E1F4FB"/>
<path d="M15.7149 0.857422C15.7444 3.09668 15.7738 5.33593 15.8042 7.64304C15.7747 7.64304 15.7453 7.64304 15.7149 7.64304C15.7149 7.49572 15.7149 7.3484 15.7149 7.19662C15.6384 7.22539 15.5618 7.25416 15.483 7.28381C14.9597 7.44121 14.349 7.48436 13.8232 7.31066C13.6669 7.22452 13.6669 7.22452 13.3935 7.01805C13.3111 6.95601 13.2287 6.89398 13.1438 6.83006C12.7939 6.53667 12.5523 6.17484 12.2942 5.80155C12.1923 5.6577 12.0903 5.51401 11.988 5.37047C11.9385 5.30101 11.8891 5.23155 11.8381 5.15999C11.129 4.14791 11.129 4.14791 10.09 3.53596C9.6563 3.49042 9.30411 3.48453 8.90697 3.67546C8.01825 4.46319 7.5973 5.50677 7.13876 6.57995C6.6497 7.71698 6.17642 8.45867 5.00077 8.98231C4.73103 9.05972 4.46126 9.12022 4.1871 9.17971C3.17714 9.45577 2.60816 10.1925 2.05997 11.0303C1.18581 12.366 1.18581 12.366 0.447266 12.643C0.447266 12.4662 0.447266 12.2894 0.447266 12.1073C0.579853 12.0631 0.579853 12.0631 0.715119 12.018C0.759315 11.9296 0.759315 11.9296 0.804403 11.8394C0.863331 11.8394 0.922259 11.8394 0.982972 11.8394C1.01244 11.7216 1.0419 11.6037 1.07226 11.4823C1.16065 11.4823 1.24904 11.4823 1.34011 11.4823C1.36957 11.3939 1.39904 11.3055 1.42939 11.2144C1.56198 11.126 1.56198 11.126 1.69725 11.0358C1.78542 10.8889 1.87305 10.7415 1.95534 10.5912C2.06239 10.3963 2.17382 10.205 2.28876 10.0147C2.3249 9.954 2.36104 9.89335 2.39827 9.83086C2.43211 9.78655 2.46595 9.74224 2.50081 9.69658C2.55974 9.69658 2.61866 9.69658 2.67938 9.69658C2.69595 9.62661 2.71252 9.55663 2.7296 9.48453C3.05603 8.66135 3.61468 8.11988 4.29836 7.5827C4.89823 7.09643 5.33694 6.53361 5.74853 5.88525C5.78386 5.83021 5.8192 5.77517 5.8556 5.71845C6.05591 5.40478 6.24563 5.08739 6.42932 4.76362C7.12701 3.58989 8.21101 2.60421 9.54312 2.24342C9.6953 2.20771 9.84785 2.17359 10.0007 2.14089C10.084 2.1223 10.1673 2.10371 10.2531 2.08456C10.9204 1.94333 11.5882 1.86367 12.2663 1.79491C13.3813 1.68158 14.7102 0.857422 15.7149 0.857422Z" fill="#F9BECB"/>
<path d="M0 0.857422C0.147319 0.857422 0.294639 0.857422 0.446422 0.857422C0.475886 4.71719 0.50535 8.57695 0.535707 12.5537C1.18231 12.077 1.18231 12.077 1.65734 11.5046C1.72456 11.4117 1.79177 11.3188 1.86102 11.2231C1.98154 11.05 2.1008 10.876 2.21816 10.7007C2.86213 9.74204 3.55018 9.22191 4.67627 8.9544C5.40206 8.76582 6.05837 8.39671 6.48546 7.76685C6.80697 7.20338 7.04599 6.59084 7.30036 5.99476C7.71991 5.01572 8.19005 3.94979 9.1963 3.44667C9.80713 3.37741 10.3039 3.43298 10.8034 3.80381C11.3824 4.32554 11.8147 5.00378 12.2627 5.63662C12.7775 6.39243 12.7775 6.39243 13.4485 7.00131C13.4993 7.03687 13.5502 7.07244 13.6026 7.10908C13.927 7.302 14.2132 7.29791 14.5813 7.29706C14.7299 7.29741 14.7299 7.29741 14.8816 7.29776C15.1666 7.28637 15.4342 7.24997 15.7141 7.19662C15.7141 7.34394 15.7141 7.49126 15.7141 7.64304C15.056 7.89306 14.2208 7.98722 13.5545 7.70442C12.6474 7.14934 12.0335 6.2368 11.442 5.37993C10.8086 4.43274 10.8086 4.43274 9.82094 3.94645C9.4867 3.92045 9.29214 3.97844 9.00657 4.14979C8.24316 4.89267 7.85017 6.06015 7.42003 7.01718C6.92329 8.12066 6.33374 8.90108 5.1785 9.33944C4.98369 9.39877 4.78834 9.45637 4.59257 9.51243C3.47197 9.85058 2.98602 10.4836 2.34202 11.4134C1.84449 12.1292 1.32789 12.7826 0.535707 13.1787C0.506243 13.6796 0.476779 14.1804 0.446422 14.6965C5.48474 14.6965 10.5231 14.6965 15.7141 14.6965C15.7141 14.8438 15.7141 14.9911 15.7141 15.1429C10.5284 15.1429 5.34278 15.1429 0 15.1429C0 10.4287 0 5.7145 0 0.857422Z" fill="#3B252B"/>
<path d="M10 3.89313C10.4779 4.09913 10.9064 4.40764 11.1607 4.87526C11.1642 5.06255 11.1642 5.06255 11.0714 5.2324C10.8308 5.3297 10.8308 5.3297 10.5246 5.40539C9.38915 5.72642 8.78492 6.52118 8.12503 7.46451C8.08083 7.5529 8.08083 7.5529 8.03575 7.64308C7.97682 7.64308 7.91789 7.64308 7.85718 7.64308C7.8406 7.71306 7.82403 7.78303 7.80695 7.85513C7.65348 8.24216 7.43699 8.54262 7.19278 8.87772C7.05201 9.06308 7.05201 9.06308 6.96433 9.2502C6.90541 9.2502 6.84648 9.2502 6.78576 9.2502C6.76355 9.30049 6.74134 9.35079 6.71845 9.40261C5.90002 10.9086 4.21914 11.7084 2.69263 12.2935C2.10504 12.5426 1.59391 12.9529 1.08063 13.3255C0.89299 13.4466 0.89299 13.4466 0.714421 13.4466C0.714421 13.5055 0.714421 13.5644 0.714421 13.6251C0.581834 13.6693 0.581834 13.6693 0.446568 13.7144C0.421457 13.4651 0.421457 13.4651 0.446568 13.1787C0.616766 13.0179 0.616766 13.0179 0.848348 12.883C1.60244 12.3961 2.07017 11.7394 2.57023 11.0069C3.1994 10.0861 3.72209 9.63413 4.82151 9.34506C5.70082 9.10749 6.36001 8.66902 6.87505 7.91093C7.21317 7.30371 7.50352 6.67457 7.78812 6.04084C8.82862 3.74432 8.82862 3.74432 10 3.89313Z" fill="#F5D2B1"/>
<path d="M15.6247 3.625C15.6541 3.625 15.6836 3.625 15.7139 3.625C15.7434 4.95087 15.7729 6.27675 15.8032 7.6428C15.7738 7.6428 15.7443 7.6428 15.7139 7.6428C15.7139 7.49548 15.7139 7.34816 15.7139 7.19638C15.6374 7.22515 15.5609 7.25392 15.482 7.28357C14.9588 7.44097 14.348 7.48412 13.8222 7.31042C13.666 7.22428 13.666 7.22428 13.3926 7.01781C13.311 6.95658 13.2293 6.89535 13.1453 6.83226C12.7817 6.52755 12.5251 6.14815 12.2542 5.76225C12.2027 5.6906 12.1513 5.61896 12.0983 5.54514C11.8809 5.23988 11.6782 4.94663 11.5176 4.60713C11.8555 4.45021 12.1121 4.40875 12.4833 4.4174C12.581 4.41878 12.6786 4.42016 12.7792 4.42158C12.8804 4.42389 12.9815 4.42619 13.0856 4.42856C13.2866 4.43312 13.4876 4.43687 13.6887 4.43972C13.8219 4.44283 13.8219 4.44283 13.9578 4.446C14.2067 4.42778 14.3384 4.37049 14.5532 4.24999C14.6545 4.22605 14.7558 4.20211 14.8602 4.17745C15.2196 4.05765 15.3753 3.90371 15.6247 3.625Z" fill="#F9D7AD"/>
<path d="M0.267853 13.7144C0.297317 13.7144 0.326781 13.7144 0.357138 13.7144C0.357138 14.0385 0.357138 14.3626 0.357138 14.6965C5.42492 14.6965 10.4927 14.6965 15.7141 14.6965C15.7141 14.8438 15.7141 14.9911 15.7141 15.1429C10.5284 15.1429 5.34278 15.1429 0 15.1429C0.0892844 14.1608 0.0892844 14.1608 0.267853 13.7144Z" fill="#24272A"/>
<path d="M6.78593 8.44678C6.84486 8.47624 6.90378 8.50571 6.9645 8.53606C6.91495 8.83333 6.85646 9.08213 6.69664 9.33962C6.60825 9.39855 6.51986 9.45748 6.42879 9.51819C6.38275 9.59553 6.33672 9.67288 6.28928 9.75256C6.24693 9.82254 6.20458 9.89252 6.16094 9.96461C6.10201 9.96461 6.04308 9.96461 5.98237 9.96461C5.98237 10.0235 5.98237 10.0825 5.98237 10.1432C5.91239 10.1653 5.84242 10.1874 5.77032 10.2101C5.52587 10.2966 5.52587 10.2966 5.45224 10.4947C5.31198 10.767 5.093 10.8194 4.82167 10.9467C4.73051 11.0341 4.64126 11.1235 4.55382 11.2146C4.37525 11.3336 4.19668 11.4527 4.01811 11.5717C3.97633 11.6186 3.93455 11.6654 3.89151 11.7137C3.71142 11.8742 3.60349 11.8771 3.36522 11.8898C3.02351 11.9166 2.73296 11.9836 2.41099 12.1074C2.35206 12.0485 2.29314 11.9896 2.23242 11.9289C2.32796 11.7534 2.42496 11.5787 2.5226 11.4043C2.57646 11.307 2.63032 11.2096 2.68582 11.1093C2.85796 10.8567 2.93986 10.7879 3.21455 10.6789C3.27348 10.6163 3.33241 10.5537 3.39312 10.4892C3.57169 10.3218 3.57169 10.3218 3.92883 10.3218C3.9454 10.2702 3.96197 10.2186 3.97905 10.1655C4.16387 9.87622 4.41464 9.72187 4.73239 9.60748C4.81894 9.62221 4.90549 9.63694 4.99466 9.65212C5.3982 9.718 5.64865 9.55864 5.98237 9.33962C6.28749 9.06917 6.53718 8.76923 6.78593 8.44678Z" fill="#F9D7AF"/>
<path d="M0.0898438 0.946777C0.178235 0.946777 0.266627 0.946777 0.357697 0.946777C0.387161 4.98333 0.416625 9.01988 0.446982 13.1787C0.270198 13.2671 0.270198 13.2671 0.0898438 13.3573C0.0898438 9.26184 0.0898438 5.16636 0.0898438 0.946777Z" fill="#201F22"/>
<path d="M0 0.857422C0.147319 0.857422 0.294639 0.857422 0.446422 0.857422C0.446422 4.68772 0.446422 8.51803 0.446422 12.4644C0.416958 12.4644 0.387494 12.4644 0.357138 12.4644C0.357138 8.66356 0.357138 4.86272 0.357138 0.946706C0.268746 0.946706 0.180355 0.946706 0.0892844 0.946706C0.118748 5.01272 0.148212 9.07873 0.178569 13.268C0.26696 13.2385 0.355352 13.209 0.446422 13.1787C0.446422 13.6796 0.446422 14.1804 0.446422 14.6965C0.416958 14.6965 0.387494 14.6965 0.357138 14.6965C0.327674 14.4608 0.29821 14.2251 0.267853 13.9822C0.208926 14.2474 0.149998 14.5126 0.0892844 14.7858C0.0598206 14.7858 0.0303567 14.7858 0 14.7858C0 10.1894 0 5.59307 0 0.857422Z" fill="#403F42"/>
<path d="M10.9819 4.33936C11.0408 4.33936 11.0997 4.33936 11.1604 4.33936C11.1899 4.45721 11.2194 4.57507 11.2497 4.69649C11.3017 4.70317 11.3538 4.70984 11.4074 4.71672C11.6776 4.81026 11.769 4.95016 11.9417 5.1764C12.0038 5.25673 12.066 5.33707 12.13 5.41984C12.2561 5.5906 12.3799 5.76312 12.5011 5.93741C12.9118 6.52758 13.3148 7.0515 14.0175 7.28574C14.2052 7.29426 14.3932 7.29734 14.5811 7.2969C14.7298 7.29725 14.7298 7.29725 14.8814 7.2976C15.1664 7.28621 15.434 7.24981 15.7139 7.19646C15.7139 7.34378 15.7139 7.4911 15.7139 7.64288C15.0559 7.8929 14.2207 7.98706 13.5544 7.70426C12.6991 7.18088 12.0896 6.32829 11.5347 5.5147C11.3448 5.23323 11.3448 5.23323 11.1395 4.98458C10.9857 4.79059 10.9188 4.67297 10.8926 4.42864C10.922 4.39918 10.9515 4.36971 10.9819 4.33936Z" fill="#2F2B22"/>
<path d="M5.4465 9.16064C5.49069 9.29323 5.49069 9.29323 5.53578 9.4285C5.23116 9.69927 5.23116 9.69927 4.97775 9.68519C4.59704 9.7025 4.31529 9.91351 4.01795 10.1428C3.98848 10.2017 3.95902 10.2606 3.92866 10.3213C3.80436 10.36 3.80436 10.36 3.67755 10.3995C3.37318 10.5069 3.24865 10.6214 3.03582 10.857C2.97689 10.8865 2.91796 10.916 2.85725 10.9463C2.75929 11.109 2.66699 11.2751 2.57823 11.443C2.53013 11.5333 2.48202 11.6237 2.43245 11.7168C2.39585 11.7866 2.35925 11.8565 2.32154 11.9285C2.38047 11.9579 2.4394 11.9874 2.50011 12.0177C2.59955 11.9763 2.59955 11.9763 2.701 11.934C2.97722 11.8273 3.18871 11.8255 3.48224 11.8392C3.36014 12.0834 3.23957 12.0885 2.98559 12.1796C2.275 12.4537 1.69432 12.8797 1.08063 13.3253C0.89299 13.4463 0.89299 13.4463 0.714421 13.4463C0.714421 13.5052 0.714421 13.5642 0.714421 13.6249C0.581834 13.6691 0.581834 13.6691 0.446568 13.7142C0.421457 13.4648 0.421457 13.4648 0.446568 13.1784C0.616766 13.0177 0.616766 13.0177 0.848348 12.8827C1.60244 12.3959 2.07017 11.7391 2.57023 11.0066C3.34995 9.86547 4.11672 9.49924 5.4465 9.16064Z" fill="#E6D9B3"/>
<path d="M10.0008 3.89326C10.224 3.98254 10.224 3.98254 10.3579 4.07183C10.3579 4.13076 10.3579 4.18968 10.3579 4.2504C10.2585 4.29091 10.159 4.33142 10.0566 4.37316C9.73629 4.49367 9.73629 4.49367 9.55433 4.69682C9.47515 4.75943 9.39596 4.82204 9.31438 4.88655C9.02448 5.12496 8.79209 5.39929 8.54953 5.68453C8.33761 5.91968 8.10718 6.1094 7.85793 6.30394C7.76864 6.03609 7.76864 6.03609 7.8942 5.74208C7.95528 5.62551 8.01767 5.50963 8.08114 5.39435C8.11361 5.33443 8.14608 5.27451 8.17954 5.21278C8.63116 4.40268 9.00664 3.80878 10.0008 3.89326Z" fill="#F1BEC4"/>
<path d="M11.1601 4.96436C11.4869 5.26674 11.7323 5.60595 11.986 5.96881C12.0269 6.02681 12.0679 6.08482 12.1101 6.14458C12.2104 6.28666 12.3103 6.42904 12.4101 6.57148C12.3217 6.6304 12.2333 6.68933 12.1422 6.75004C12.1183 6.68007 12.0943 6.61009 12.0697 6.53799C11.9772 6.27852 11.9772 6.27852 11.6958 6.12505C11.6958 6.03666 11.6958 5.94827 11.6958 5.8572C11.6074 5.82774 11.519 5.79827 11.4279 5.76792C11.369 5.67952 11.3101 5.59113 11.2494 5.50006C11.0912 5.50785 10.9331 5.51751 10.7751 5.52796C10.643 5.53573 10.643 5.53573 10.5082 5.54366C10.2371 5.59506 10.1748 5.65403 9.9994 5.8572C9.89996 5.9106 9.80052 5.96401 9.69806 6.01903C9.35333 6.20706 9.16757 6.44201 8.92798 6.75004C8.86906 6.77951 8.81013 6.80897 8.74941 6.83933C8.70522 6.91299 8.66102 6.98665 8.61549 7.06254C8.48156 7.28575 8.48156 7.28575 8.30299 7.37504C8.23846 7.55102 8.17412 7.72709 8.11152 7.90377C8.00777 8.15581 7.86684 8.3408 7.678 8.53573C7.61907 8.53573 7.56015 8.53573 7.49943 8.53573C7.47549 8.58545 7.45155 8.63517 7.42689 8.6864C7.09959 9.32377 7.09959 9.32377 6.78516 9.42858C6.78516 9.36965 6.78516 9.31072 6.78516 9.25001C6.84408 9.25001 6.90301 9.25001 6.96373 9.25001C6.98663 9.18682 7.00953 9.12364 7.03313 9.05854C7.15131 8.78253 7.29622 8.54698 7.46037 8.29578C7.6711 7.97656 7.6711 7.97656 7.85657 7.64289C7.9155 7.64289 7.97443 7.64289 8.03514 7.64289C8.05632 7.57993 8.07749 7.51698 8.09931 7.45211C8.2338 7.15157 8.40619 6.93131 8.61549 6.6775C8.68638 6.59038 8.75728 6.50325 8.83033 6.41348C8.89202 6.34777 8.95371 6.28205 9.01727 6.21434C9.0762 6.21434 9.13512 6.21434 9.19584 6.21434C9.21793 6.16013 9.24003 6.10592 9.2628 6.05007C9.53638 5.57728 10.1698 5.40212 10.669 5.26011C10.7809 5.23197 10.7809 5.23197 10.895 5.20326C11.0884 5.15983 11.0884 5.15983 11.1601 4.96436Z" fill="#9ED0BA"/>
<path d="M5.44554 9.16064C5.48974 9.29323 5.48974 9.29323 5.53483 9.4285C5.23021 9.69927 5.23021 9.69927 4.9768 9.68519C4.59608 9.7025 4.31434 9.91351 4.01699 10.1428C3.98753 10.2017 3.95806 10.2606 3.92771 10.3213C3.80341 10.36 3.80341 10.36 3.6766 10.3995C3.37223 10.5069 3.24769 10.6214 3.03486 10.857C2.97594 10.8865 2.91701 10.916 2.85629 10.9463C2.75834 11.109 2.66604 11.2751 2.57728 11.443C2.52917 11.5333 2.48106 11.6237 2.4315 11.7168C2.3949 11.7866 2.3583 11.8565 2.32059 11.9285C2.2322 11.8695 2.1438 11.8106 2.05273 11.7499C3.0293 10.3067 3.70418 9.60403 5.44554 9.16064Z" fill="#E7B8C0"/>
<path d="M15.7148 0.857422C15.7148 1.65295 15.7148 2.44847 15.7148 3.2681C15.5362 3.08953 15.5362 3.08953 15.5219 2.84016C15.5248 2.74015 15.5277 2.64013 15.5306 2.53709C15.5377 2.11207 15.5246 1.72112 15.4469 1.30384C15.3751 1.32778 15.3033 1.35172 15.2293 1.37639C15.1243 1.41138 15.0194 1.44636 14.9112 1.48241C14.8128 1.51625 14.8128 1.51625 14.7124 1.55077C14.6436 1.57425 14.5748 1.59773 14.5039 1.62192C14.4393 1.64413 14.3747 1.66635 14.3082 1.68923C13.8119 1.84028 13.2941 1.89695 12.7823 1.97348C12.6099 2.0008 12.4379 2.0317 12.2672 2.06869C11.9835 2.12023 11.715 2.10516 11.4281 2.0931C11.2296 2.08979 11.2296 2.08979 11.072 2.28597C10.9541 2.19758 10.8363 2.10919 10.7148 2.01812C10.8004 2.00834 10.8859 1.99855 10.974 1.98847C12.4627 1.81342 14.3587 0.857422 15.7148 0.857422Z" fill="#EFC9D2"/>
<path d="M5.89197 5.67871C5.92144 5.67871 5.9509 5.67871 5.98126 5.67871C6.00358 5.8796 6.00358 5.8796 5.98126 6.12513C5.86624 6.24808 5.74662 6.36678 5.62412 6.48227C5.56335 6.6121 5.56335 6.6121 5.50135 6.74454C5.32576 7.07548 5.11483 7.23619 4.82056 7.4644C4.75979 7.52701 4.69902 7.58962 4.63641 7.65413C4.46342 7.82154 4.46342 7.82154 4.25277 7.93558C3.97608 8.11609 3.83232 8.30517 3.64312 8.57488C3.58293 8.65947 3.52273 8.74406 3.46072 8.83122C3.33171 9.02744 3.22855 9.21942 3.12416 9.42866C3.06523 9.48759 3.0063 9.54651 2.94559 9.60723C2.8572 9.57776 2.7688 9.5483 2.67773 9.51794C3.05605 8.77972 3.42759 8.25657 4.09857 7.75922C4.86205 7.19193 5.46239 6.53788 5.89197 5.67871Z" fill="#F2CBD5"/>
<path d="M7.76697 7.64307C7.81116 7.73146 7.81116 7.73146 7.85625 7.82164C7.73767 8.03822 7.73767 8.03822 7.56608 8.29596C7.31778 8.67177 7.31778 8.67177 7.08757 9.05871C7.04659 9.1219 7.00562 9.18509 6.96341 9.25019C6.90448 9.25019 6.84555 9.25019 6.78484 9.25019C6.76262 9.30048 6.74041 9.35078 6.71752 9.4026C6.19441 10.3652 5.11644 11.2568 4.1063 11.6609C4.04738 11.6314 3.98845 11.6019 3.92773 11.5716C4.0278 11.4967 4.12833 11.4224 4.22907 11.3484C4.285 11.3069 4.34094 11.2655 4.39857 11.2228C4.55273 11.1252 4.55273 11.1252 4.73129 11.1252C4.75155 11.0699 4.77181 11.0147 4.79268 10.9578C4.94598 10.7096 5.08815 10.6955 5.35629 10.5895C5.50683 10.4424 5.6559 10.2938 5.80271 10.143C5.86164 10.143 5.92056 10.143 5.98128 10.143C5.98128 10.0841 5.98128 10.0252 5.98128 9.96446C6.06967 9.90553 6.15806 9.84661 6.24913 9.78589C6.29517 9.70855 6.3412 9.63121 6.38864 9.55152C6.43099 9.48154 6.47335 9.41157 6.51698 9.33947C6.57591 9.33947 6.63484 9.33947 6.69555 9.33947C6.71765 9.27686 6.73975 9.21425 6.76252 9.14974C7.0043 8.59364 7.40151 8.12303 7.76697 7.64307Z" fill="#DDE0BE"/>
<path d="M13.6613 7.19678C13.732 7.21853 13.732 7.21853 13.8043 7.24072C14.0694 7.29685 14.3167 7.29785 14.5876 7.29722C14.6859 7.29745 14.7842 7.29768 14.8854 7.29792C15.1693 7.28646 15.436 7.24984 15.7148 7.19678C15.7148 7.3441 15.7148 7.49142 15.7148 7.6432C15.0782 7.88507 14.3449 7.96075 13.6892 7.74155C13.4939 7.6432 13.4939 7.6432 13.2148 7.46463C13.5608 7.37535 13.5608 7.37535 13.6613 7.37535C13.6613 7.31642 13.6613 7.25749 13.6613 7.19678Z" fill="#233330"/>
<path d="M4.8222 11.3037C4.8222 11.3626 4.8222 11.4216 4.8222 11.4823C3.62085 12.1577 3.62085 12.1577 3.09232 12.3137C2.71178 12.4348 2.4496 12.6196 2.14088 12.8683C1.9668 12.9988 1.79871 13.0914 1.60238 13.1843C1.06494 13.4258 1.06494 13.4258 0.625835 13.8037C0.54864 14.1028 0.532362 14.3884 0.53655 14.6965C0.507086 14.6965 0.477622 14.6965 0.447266 14.6965C0.447266 14.3724 0.447266 14.0483 0.447266 13.7144C0.535657 13.6849 0.624049 13.6555 0.715119 13.6251C0.715119 13.5662 0.715119 13.5073 0.715119 13.4465C0.869065 13.3381 1.02818 13.2369 1.18944 13.1396C1.53153 12.9387 1.53153 12.9387 1.83187 12.6841C2.31051 12.2155 3.1036 11.9824 3.72149 11.7453C3.9311 11.6601 4.13003 11.5634 4.33114 11.46C4.64363 11.3037 4.64363 11.3037 4.8222 11.3037Z" fill="#A2CDBA"/>
<path d="M1.51699 11.6606C1.66431 11.6606 1.81163 11.6606 1.96341 11.6606C1.89523 12.2128 1.57565 12.4797 1.15985 12.8213C0.925432 12.9637 0.698624 13.07 0.445576 13.1785C0.367147 12.9019 0.356795 12.7404 0.445576 12.4642C0.533967 12.4642 0.622359 12.4642 0.713429 12.4642C0.899629 12.3336 0.899629 12.3336 1.08173 12.1629C1.14457 12.1069 1.20741 12.051 1.27215 11.9934C1.43502 11.8484 1.43502 11.8484 1.51699 11.6606Z" fill="#342523"/>
<path d="M2.76758 4.42871C3.59257 4.42871 4.41755 4.42871 5.26754 4.42871C5.26754 4.54657 5.26754 4.66442 5.26754 4.78585C4.44255 4.78585 3.61757 4.78585 2.76758 4.78585C2.76758 4.66799 2.76758 4.55014 2.76758 4.42871Z" fill="#262729"/>
<path d="M14.8211 4.16113C14.88 4.1906 14.939 4.22006 14.9997 4.25042C14.8489 4.47304 14.7153 4.59104 14.4504 4.65115C14.0654 4.68994 13.6839 4.69864 13.2973 4.69196C13.2346 4.69106 13.1719 4.69017 13.1073 4.68925C12.9256 4.68582 12.7438 4.67987 12.5621 4.67382C12.2087 4.69845 11.9985 4.78562 11.6961 4.96469C11.6372 4.84684 11.5783 4.72898 11.5176 4.60756C11.8555 4.45064 12.1121 4.40917 12.4833 4.41783C12.581 4.41921 12.6786 4.42059 12.7792 4.42201C12.8804 4.42431 12.9815 4.42661 13.0856 4.42899C13.2866 4.43355 13.4876 4.4373 13.6887 4.44015C13.8219 4.44325 13.8219 4.44325 13.9578 4.44642C14.2065 4.42823 14.3397 4.37332 14.5532 4.25042C14.6416 4.22095 14.73 4.19149 14.8211 4.16113Z" fill="#FAC9BB"/>
<path d="M11.875 5.85742C12.0926 5.92997 12.0926 5.92997 12.3214 6.03599C12.3509 6.12438 12.3803 6.21277 12.4107 6.30384C12.5279 6.45826 12.5279 6.45826 12.6786 6.5717C12.767 6.5717 12.8553 6.5717 12.9464 6.5717C13.1288 6.67947 13.1288 6.67947 13.3203 6.82281C13.3842 6.86942 13.448 6.91604 13.5139 6.96406C13.5623 7.01136 13.6108 7.05867 13.6607 7.1074C13.6607 7.1958 13.6607 7.28419 13.6607 7.37526C13.7491 7.40472 13.8375 7.43419 13.9285 7.46454C13.75 7.55383 13.75 7.55383 13.4319 7.4757C12.7117 7.18972 12.2071 6.53602 11.875 5.85742Z" fill="#1B2825"/>
<path d="M5.62555 1.66113C5.8318 1.83792 6.03804 2.0147 6.25054 2.19684C6.16126 2.46469 6.16126 2.46469 5.8934 2.64326C5.86394 2.73165 5.83448 2.82004 5.80412 2.91112C5.71573 2.91112 5.62734 2.91112 5.53627 2.91112C5.51233 2.85403 5.48839 2.79694 5.46372 2.73813C5.36782 2.5244 5.36782 2.5244 5.08984 2.46469C5.08984 2.3763 5.08984 2.28791 5.08984 2.19684C5.14509 2.19131 5.20033 2.18579 5.25725 2.1801C5.47177 2.12283 5.47177 2.12283 5.55859 1.87876C5.58069 1.80695 5.60278 1.73513 5.62555 1.66113Z" fill="#E5C59B"/>
<path d="M0 10.7681C0.0294639 10.7681 0.0589277 10.7681 0.0892844 10.7681C0.118748 11.5931 0.148212 12.418 0.178569 13.268C0.26696 13.2386 0.355352 13.2091 0.446422 13.1787C0.446422 13.6796 0.446422 14.1805 0.446422 14.6966C0.416958 14.6966 0.387494 14.6966 0.357138 14.6966C0.327674 14.4609 0.29821 14.2252 0.267853 13.9823C0.208926 14.2475 0.149998 14.5127 0.0892844 14.7859C0.0598206 14.7859 0.0303567 14.7859 0 14.7859C0 13.46 0 12.1341 0 10.7681Z" fill="#2D2C2C"/>
<path d="M8.03569 3.08936C7.91289 3.36855 7.7727 3.54622 7.5502 3.75341C7.30348 3.99301 7.13082 4.2151 6.96428 4.51791C6.89155 4.63061 6.81702 4.74217 6.74106 4.85272C6.70516 4.90567 6.66925 4.95861 6.63225 5.01316C6.51785 5.1429 6.51785 5.1429 6.25 5.23218C6.48964 4.59646 7.28217 3.08936 8.03569 3.08936Z" fill="#F0CCD4"/>
<path d="M1.69725 11.125C1.75618 11.1839 1.8151 11.2429 1.87582 11.3036C1.4911 11.8446 1.10444 12.2896 0.53655 12.6428C0.507086 12.6428 0.477622 12.6428 0.447266 12.6428C0.447266 12.4661 0.447266 12.2893 0.447266 12.1071C0.683636 11.9767 0.794982 11.9286 1.07226 11.9286C1.07226 11.8696 1.07226 11.8107 1.07226 11.75C1.13118 11.75 1.19011 11.75 1.25083 11.75C1.25083 11.6911 1.25083 11.6321 1.25083 11.5714C1.30975 11.5714 1.36868 11.5714 1.42939 11.5714C1.42939 11.5125 1.42939 11.4536 1.42939 11.3929C1.56332 11.2478 1.56332 11.2478 1.69725 11.125Z" fill="#E0B6BE"/>
<path d="M2.49914 9.69678C2.58753 9.72624 2.67592 9.75571 2.76699 9.78606C2.70899 9.85512 2.70899 9.85512 2.64981 9.92557C2.46552 10.1918 2.35677 10.4702 2.23129 10.7682C2.14484 10.9187 2.0566 11.0682 1.96343 11.2146C1.87504 11.1851 1.78665 11.1557 1.69558 11.1253C1.81274 10.8056 1.95416 10.5403 2.14758 10.2604C2.33684 9.98651 2.33684 9.98651 2.49914 9.69678ZM1.60629 11.1253C1.60629 11.2137 1.60629 11.3021 1.60629 11.3932C1.54737 11.3932 1.48844 11.3932 1.42773 11.3932C1.42773 11.4521 1.42773 11.511 1.42773 11.5718C1.3688 11.5718 1.30987 11.5718 1.24916 11.5718C1.24916 11.6307 1.24916 11.6896 1.24916 11.7503C1.19023 11.7503 1.1313 11.7503 1.07059 11.7503C1.07059 11.8092 1.07059 11.8682 1.07059 11.9289C0.982196 11.8994 0.893805 11.87 0.802734 11.8396C0.861662 11.8396 0.92059 11.8396 0.981303 11.8396C1.01077 11.7217 1.04023 11.6039 1.07059 11.4825C1.15898 11.4825 1.24737 11.4825 1.33844 11.4825C1.3679 11.3941 1.39737 11.3057 1.42773 11.2146C1.48665 11.1851 1.54558 11.1557 1.60629 11.1253Z" fill="#EBC7D2"/>
<path d="M5.00053 9.69647C4.61586 10.2504 4.12542 10.5033 3.4827 10.6786C3.39431 10.6786 3.30591 10.6786 3.21484 10.6786C3.37109 10.5 3.37109 10.5 3.57198 10.3215C3.68984 10.3215 3.80769 10.3215 3.92912 10.3215C3.95398 10.2441 3.95398 10.2441 3.97934 10.1652C4.20932 9.80525 4.57573 9.55486 5.00053 9.69647Z" fill="#FBCBBA"/>
<path d="M15.6239 8.08936C15.6533 8.08936 15.6828 8.08936 15.7132 8.08936C15.7132 9.23845 15.7132 10.3875 15.7132 11.5714C15.1105 11.471 15.1105 11.471 14.8203 11.2143C14.9766 11.1529 14.9766 11.1529 15.1775 11.125C15.2953 11.2134 15.4132 11.3018 15.5346 11.3929C15.5641 10.3027 15.5935 9.21255 15.6239 8.08936Z" fill="#96CEC9"/>
<path d="M10.7137 2.10716C10.5946 2.16669 10.4756 2.22621 10.3566 2.28573C10.2995 2.31888 10.2424 2.35203 10.1836 2.38618C9.96324 2.47965 9.79003 2.4643 9.55299 2.4643C9.49406 2.52323 9.43514 2.58216 9.37442 2.64287C9.16624 2.70292 8.95789 2.76238 8.74943 2.82144C8.65183 2.87116 8.55423 2.92088 8.45368 2.97211C8.37449 3.01078 8.29531 3.04945 8.21373 3.08929C8.1548 3.05983 8.09587 3.03036 8.03516 3.00001C8.57714 2.54626 9.14367 2.37703 9.82085 2.19645C9.88541 2.17861 9.94998 2.16077 10.0165 2.14239C10.2494 2.09158 10.4763 2.10177 10.7137 2.10716Z" fill="#F0CBD4"/>
<path d="M6.42939 7.375C6.48832 7.46339 6.54725 7.55178 6.60796 7.64285C6.30291 8.09827 6.0668 8.42298 5.53655 8.62498C5.50709 8.50713 5.47762 8.38927 5.44727 8.26784C5.48824 8.23332 5.52921 8.19879 5.57143 8.16321C5.86914 7.91053 6.15842 7.65682 6.42939 7.375Z" fill="#EAB7C6"/>
<path d="M6.96428 7.73242C6.99374 7.79135 7.0232 7.85028 7.05356 7.91099C7.20088 7.91099 7.3482 7.91099 7.49998 7.91099C7.38282 8.26248 7.23935 8.46698 6.96428 8.71455C6.90535 8.65562 6.84642 8.5967 6.78571 8.53598C6.60892 8.59491 6.43214 8.65384 6.25 8.71455C6.3049 8.65309 6.3049 8.65309 6.36091 8.59039C6.40902 8.53561 6.45713 8.48082 6.50669 8.42438C6.55434 8.37051 6.60199 8.31665 6.65108 8.26115C6.7839 8.09186 6.87528 7.9277 6.96428 7.73242ZM6.96428 8.26813C7.05356 8.4467 7.05356 8.4467 7.05356 8.4467L6.96428 8.26813Z" fill="#EACCAE"/>
<path d="M9.28597 5.67871C9.48686 5.70103 9.48686 5.70103 9.64311 5.768C9.60087 5.80068 9.55863 5.83337 9.51511 5.86705C8.92978 6.34626 8.37715 6.96066 8.03599 7.64297C7.97706 7.64297 7.91814 7.64297 7.85742 7.64297C7.88689 7.49565 7.91635 7.34833 7.94671 7.19655C8.00563 7.19655 8.06456 7.19655 8.12528 7.19655C8.14852 7.14591 8.17177 7.09526 8.19573 7.04309C8.31355 6.82113 8.45016 6.6353 8.60518 6.43763C8.68356 6.33681 8.68356 6.33681 8.76352 6.23395C9.09948 5.83136 9.09948 5.83136 9.28597 5.67871Z" fill="#DDE0BF"/>
<path d="M8.12499 4.42871C8.28012 4.66596 8.3043 4.77656 8.28124 5.06486C8.21428 5.32156 8.21428 5.32156 8.03571 5.50012C8.03571 5.4412 8.03571 5.38227 8.03571 5.32156C7.91785 5.35102 7.8 5.38048 7.67857 5.41084C7.64911 5.5287 7.61964 5.64655 7.58928 5.76798C7.55982 5.70905 7.53036 5.65012 7.5 5.58941C7.60533 5.34074 7.60533 5.34074 7.75669 5.04812C7.80618 4.95133 7.85567 4.85453 7.90666 4.75481C8.03571 4.518 8.03571 4.518 8.12499 4.42871Z" fill="#432831"/>
<path d="M10.6253 3.80371C10.9335 3.93101 11.0808 4.08027 11.2726 4.35058C11.3191 4.41526 11.3656 4.47994 11.4135 4.54659C11.4653 4.62082 11.4653 4.62082 11.5181 4.69656C11.4297 4.69656 11.3413 4.69656 11.2503 4.69656C11.2208 4.5787 11.1913 4.46084 11.161 4.33942C10.9777 4.50387 10.9777 4.50387 10.8931 4.69656C10.4579 4.27245 10.4579 4.27245 10.3574 4.07156C10.4163 4.07156 10.4753 4.07156 10.536 4.07156C10.5655 3.98317 10.5949 3.89478 10.6253 3.80371Z" fill="#3C2D27"/>
<path d="M8.83899 5.14307C8.83899 5.41092 8.83899 5.41092 8.64368 5.63239C8.56081 5.71215 8.47795 5.79191 8.39257 5.87408C8.3097 5.95453 8.22684 6.03498 8.14146 6.11787C8.077 6.17922 8.01255 6.24056 7.94615 6.30376C7.88722 6.2743 7.82829 6.24484 7.76758 6.21448C7.92383 5.70109 7.92383 5.70109 8.12472 5.5002C8.23244 5.48087 8.23244 5.48087 8.34235 5.46114C8.59471 5.40574 8.67747 5.33859 8.83899 5.14307Z" fill="#EBC0B4"/>
<path d="M2.85629 10.5894C2.97415 10.6483 3.09201 10.7072 3.21343 10.7679C3.16049 10.787 3.10755 10.8061 3.053 10.8258C2.78751 10.9887 2.70698 11.1734 2.56612 11.4487C2.49637 11.583 2.49637 11.583 2.42522 11.7201C2.39069 11.7889 2.35616 11.8577 2.32059 11.9286C2.2322 11.8697 2.1438 11.8108 2.05273 11.7501C2.31791 11.367 2.58308 10.984 2.85629 10.5894Z" fill="#E1C0AA"/>
<path d="M5.89313 2.10742C5.89313 2.16635 5.89313 2.22528 5.89313 2.28599C5.95206 2.28599 6.01098 2.28599 6.0717 2.28599C6.04408 2.33939 6.01645 2.3928 5.98799 2.44782C5.88401 2.65113 5.88401 2.65113 5.80384 2.91098C5.71545 2.91098 5.62706 2.91098 5.53599 2.91098C5.42997 2.71009 5.42997 2.71009 5.35742 2.46456C5.50973 2.16796 5.55151 2.10742 5.89313 2.10742Z" fill="#EEC08F"/>
<path d="M15.7131 7.64307C15.6837 7.87878 15.6542 8.11449 15.6239 8.35734C15.5944 8.23949 15.5649 8.12163 15.5346 8.0002C15.4775 8.01678 15.4204 8.03335 15.3616 8.05043C15.3008 8.06332 15.2401 8.07621 15.1774 8.08949C15.148 8.06002 15.1185 8.03056 15.0882 8.0002C14.938 7.97941 14.7872 7.96336 14.6362 7.94998C14.5131 7.93876 14.5131 7.93876 14.3875 7.92731C14.2924 7.9192 14.2924 7.9192 14.1953 7.91092C14.1953 7.88146 14.1953 7.85199 14.1953 7.82164C14.2631 7.81623 14.3309 7.81082 14.4007 7.80524C14.4895 7.79776 14.5782 7.79028 14.6696 7.78257C14.7577 7.77532 14.8457 7.76807 14.9364 7.7606C15.2119 7.72831 15.4336 7.64307 15.7131 7.64307Z" fill="#83BCBB"/>
<path d="M7.85769 10.9468C7.94608 11.0057 8.03447 11.0646 8.12554 11.1253C7.77198 11.4789 7.41841 11.8325 7.05413 12.1968C7.02466 12.1378 6.9952 12.0789 6.96484 12.0182C7.02377 11.9298 7.0827 11.8414 7.14341 11.7503C7.20234 11.7503 7.26127 11.7503 7.32198 11.7503C7.32751 11.7006 7.33303 11.6509 7.33872 11.5997C7.44106 11.3084 7.63393 11.1533 7.85769 10.9468Z" fill="#94D3D2"/>
<path d="M11.3398 5.41113C11.7047 5.54753 11.8575 5.77817 12.0764 6.09193C12.1395 6.18147 12.2026 6.27101 12.2676 6.36327C12.3387 6.46651 12.3387 6.46651 12.4113 6.57183C12.3229 6.63076 12.2345 6.68969 12.1434 6.7504C12.1075 6.64543 12.1075 6.64543 12.0709 6.53835C11.9784 6.27887 11.9784 6.27887 11.697 6.12541C11.697 6.03702 11.697 5.94863 11.697 5.85756C11.6086 5.82809 11.5202 5.79863 11.4291 5.76827C11.3677 5.58412 11.3677 5.58412 11.3398 5.41113Z" fill="#8FC4C4"/>
<path d="M10.9819 4.33936C11.0408 4.33936 11.0997 4.33936 11.1604 4.33936C11.1899 4.45721 11.2194 4.57507 11.2497 4.69649C11.3676 4.72596 11.4854 4.75542 11.6069 4.78578C11.5774 4.9331 11.5479 5.08042 11.5176 5.2322C11.2187 5.13258 11.1943 5.09707 11.0488 4.836C10.9973 4.73104 10.9457 4.62607 10.8926 4.51792C10.922 4.459 10.9515 4.40007 10.9819 4.33936Z" fill="#26251E"/>
<path d="M9.46343 9.96436C9.52236 9.99382 9.58129 10.0233 9.642 10.0536C9.52899 10.1564 9.41542 10.2586 9.3016 10.3606C9.23842 10.4175 9.17523 10.4745 9.11013 10.5332C8.92773 10.6786 8.92773 10.6786 8.65987 10.7679C8.63041 10.8268 8.60094 10.8858 8.57059 10.9465C8.4822 10.917 8.3938 10.8876 8.30273 10.8572C8.42878 10.7414 8.55537 10.6262 8.68219 10.5112C8.75263 10.447 8.82307 10.3828 8.89564 10.3166C9.08283 10.1623 9.23669 10.0487 9.46343 9.96436Z" fill="#D2F8FC"/>
<path d="M1.60741 12.4644C1.79714 12.5481 1.79714 12.5481 1.96455 12.6429C1.64631 12.9242 1.39251 13.1352 0.982422 13.2679C1.01189 13.1501 1.04135 13.0322 1.07171 12.9108C1.18956 12.8813 1.30742 12.8518 1.42884 12.8215C1.42884 12.7331 1.42884 12.6447 1.42884 12.5536C1.48777 12.5242 1.5467 12.4947 1.60741 12.4644Z" fill="#DFE0BD"/>
<path d="M3.21372 9.25C3.27264 9.33839 3.33157 9.42678 3.39229 9.51785C3.30838 9.59209 3.30838 9.59209 3.22278 9.66782C3.14982 9.73251 3.07685 9.79719 3.00167 9.86383C2.8929 9.96016 2.8929 9.96016 2.78194 10.0584C2.65498 10.1726 2.53087 10.29 2.41016 10.4107C2.48967 9.93362 2.55475 9.69589 2.95702 9.40625C3.04173 9.35469 3.12644 9.30312 3.21372 9.25Z" fill="#E6B8C5"/>
<path d="M10.714 4.51807C10.8613 4.63592 11.0086 4.75378 11.1604 4.8752C11.131 4.99306 11.1015 5.11092 11.0711 5.23234C10.806 5.29127 10.5408 5.3502 10.2676 5.41091C10.3838 5.28303 10.5001 5.15515 10.6163 5.02727C10.7462 4.85524 10.7462 4.85524 10.714 4.51807Z" fill="#E8CFB2"/>
<path d="M3.75 1.75049C4.10357 1.75049 4.45713 1.75049 4.82141 1.75049C4.82141 1.83888 4.82141 1.92727 4.82141 2.01834C4.46785 2.01834 4.11428 2.01834 3.75 2.01834C3.75 1.92995 3.75 1.84156 3.75 1.75049Z" fill="#1E1E1F"/>
<path d="M8.12442 11.0356C8.12442 11.3521 8.06997 11.4019 7.86773 11.6327C7.82008 11.6883 7.77243 11.7439 7.72334 11.8012C7.58872 11.9285 7.58872 11.9285 7.41015 11.9285C7.41015 11.9874 7.41015 12.0463 7.41015 12.1071C7.26495 12.2305 7.11618 12.3499 6.96373 12.4642C6.9048 12.4347 6.84587 12.4053 6.78516 12.3749C7.22711 11.933 7.66907 11.491 8.12442 11.0356Z" fill="#CEF5F9"/>
<path d="M2.85685 9.875C2.85685 10.283 2.82857 10.4312 2.54994 10.7455C2.32115 10.9464 2.32115 10.9464 2.14258 10.9464C2.27732 10.5018 2.54941 10.2105 2.85685 9.875Z" fill="#452D38"/>
<path d="M8.66127 3.98242C8.69073 3.98242 8.72019 3.98242 8.75055 3.98242C8.7066 4.55384 8.7066 4.55384 8.47712 4.82504C8.39149 4.8941 8.39149 4.8941 8.30413 4.96455C8.27466 4.7583 8.2452 4.55206 8.21484 4.33956C8.30047 4.32575 8.30047 4.32575 8.38783 4.31166C8.4486 4.2914 8.50937 4.27115 8.57198 4.25028C8.60145 4.16188 8.63091 4.07349 8.66127 3.98242Z" fill="#372327"/>
<path d="M4.82169 11.3037C4.82169 11.3626 4.82169 11.4216 4.82169 11.4823C3.99799 11.9948 3.99799 11.9948 3.48242 11.9287C3.71844 11.7714 3.94945 11.6431 4.20228 11.5158C4.28066 11.4759 4.35903 11.4361 4.43979 11.3951C4.64312 11.3037 4.64312 11.3037 4.82169 11.3037Z" fill="#A4D0BB"/>
<path d="M8.03627 5.32178C7.9918 5.65524 7.95815 5.84073 7.76841 6.12534C7.70948 6.09587 7.65056 6.06641 7.58984 6.03605C7.58984 5.67892 7.58984 5.67892 7.67913 5.41106C7.8577 5.32178 7.8577 5.32178 8.03627 5.32178Z" fill="#301F23"/>
<path d="M6.25083 12.5537C6.43497 12.5928 6.43497 12.5928 6.60796 12.643C6.44838 12.7626 6.28832 12.8815 6.12806 13.0001C6.03898 13.0664 5.9499 13.1327 5.85811 13.201C5.62583 13.3573 5.62583 13.3573 5.44727 13.3573C5.44727 13.2983 5.44727 13.2394 5.44727 13.1787C5.60037 13.0472 5.60037 13.0472 5.79882 12.9053C6.03477 12.7413 6.03477 12.7413 6.25083 12.5537Z" fill="#95D3D2"/>
<path d="M10.5352 9.6072C11.1557 9.58343 11.7168 9.64183 12.3208 9.78577C12.3208 9.81523 12.3208 9.84469 12.3208 9.87505C11.6927 9.89618 11.1438 9.85612 10.5352 9.69648C10.5352 9.66702 10.5352 9.63755 10.5352 9.6072Z" fill="#C4EFF4"/>
<path d="M15.356 7.375C15.356 7.46339 15.356 7.55178 15.356 7.64285C15.1961 7.64767 15.0361 7.65113 14.8761 7.65401C14.787 7.65609 14.6979 7.65816 14.6062 7.66029C14.3739 7.64285 14.3739 7.64285 14.1953 7.46428C14.3218 7.44915 14.4483 7.43433 14.5748 7.41964C14.6804 7.40721 14.6804 7.40721 14.7882 7.39453C14.9989 7.375 14.9989 7.375 15.356 7.375Z" fill="#23251B"/>
<path d="M4.90986 9.60742C4.90986 9.66635 4.90986 9.72528 4.90986 9.78599C4.74036 9.92061 4.74036 9.92061 4.51924 10.065C4.41048 10.1372 4.41048 10.1372 4.29952 10.2108C4.1063 10.3217 4.1063 10.3217 3.92773 10.3217C4.02199 10.0285 4.16136 9.91353 4.4188 9.76367C4.73129 9.60742 4.73129 9.60742 4.90986 9.60742Z" fill="#F6C1BE"/>
<path d="M5.44614 9.16064C5.4756 9.24904 5.50507 9.33743 5.53542 9.4285C5.21177 9.69635 5.21177 9.69635 4.91043 9.69635C4.91043 9.63742 4.91043 9.5785 4.91043 9.51778C4.82204 9.48832 4.73365 9.45885 4.64258 9.4285C4.90775 9.34011 5.17293 9.25171 5.44614 9.16064Z" fill="#E0B9B6"/>
<path d="M11.1601 4.96436C11.278 5.11167 11.3959 5.25899 11.5173 5.41078C11.2717 5.49265 11.1281 5.50978 10.8756 5.50564C10.7071 5.50288 10.7071 5.50288 10.5352 5.50006C10.5646 5.41167 10.5941 5.32328 10.6244 5.23221C10.6963 5.22116 10.7681 5.21011 10.8421 5.19873C10.9176 5.18031 10.9931 5.1619 11.0709 5.14292C11.1003 5.084 11.1298 5.02507 11.1601 4.96436Z" fill="#99C7B9"/>
<path d="M13.4824 6.92871C13.6003 6.92871 13.7181 6.92871 13.8396 6.92871C13.8396 7.0171 13.8396 7.10549 13.8396 7.19656C14.1342 7.19656 14.4288 7.19656 14.7324 7.19656C14.3245 7.40053 14.1844 7.38056 13.7503 7.28585C13.6619 7.22692 13.5735 7.16799 13.4824 7.10728C13.4824 7.04835 13.4824 6.98942 13.4824 6.92871Z" fill="#DDC8A9"/>
<path d="M0.89341 13.5356C0.952338 13.5651 1.01127 13.5946 1.07198 13.6249C0.895196 13.7133 0.895196 13.7133 0.714841 13.8035C0.714841 13.9508 0.714841 14.0981 0.714841 14.2499C0.803233 14.2794 0.891624 14.3088 0.982694 14.3392C0.835375 14.3687 0.688056 14.3981 0.536272 14.4285C0.513951 14.1327 0.513951 14.1327 0.536272 13.8035C0.714841 13.6305 0.714841 13.6305 0.89341 13.5356Z" fill="#98D2CB"/>
<path d="M7.76785 4.96436C7.82678 5.02328 7.88571 5.08221 7.94642 5.14292C8.03481 5.14292 8.12321 5.14292 8.21428 5.14292C8.15535 5.26078 8.09642 5.37864 8.03571 5.50006C8.03571 5.44113 8.03571 5.38221 8.03571 5.32149C7.91785 5.35096 7.8 5.38042 7.67857 5.41078C7.64911 5.52863 7.61964 5.64649 7.58928 5.76792C7.55982 5.70899 7.53036 5.65006 7.5 5.58935C7.58355 5.37865 7.67263 5.17004 7.76785 4.96436Z" fill="#4B3239"/>
<path d="M12.5 9.875C12.9327 9.92777 13.2685 10.0517 13.6607 10.2321C13.5086 10.3347 13.5086 10.3347 13.3036 10.4107C13.0929 10.3305 13.0929 10.3305 12.8795 10.1987C12.8081 10.1556 12.7367 10.1126 12.6632 10.0682C12.6094 10.0339 12.5555 9.99962 12.5 9.96428C12.5 9.93482 12.5 9.90536 12.5 9.875Z" fill="#95D6D4"/>
<path d="M5.53627 9.16064C5.68359 9.16064 5.8309 9.16064 5.98269 9.16064C5.70357 9.46369 5.48578 9.6612 5.08984 9.78564C5.21261 9.60707 5.21261 9.60707 5.3577 9.4285C5.41662 9.4285 5.47555 9.4285 5.53627 9.4285C5.53627 9.34011 5.53627 9.25171 5.53627 9.16064Z" fill="#F7D0BD"/>
<path d="M1.60769 14.3395C1.60769 14.3984 1.60769 14.4574 1.60769 14.5181C1.31305 14.5181 1.01841 14.5181 0.714844 14.5181C0.744308 14.4592 0.773771 14.4002 0.804128 14.3395C1.12171 14.2636 1.29454 14.2351 1.60769 14.3395Z" fill="#D2F5FA"/>
<path d="M1.96344 11.8394C2.02237 11.8983 2.0813 11.9572 2.14201 12.0179C2.05362 12.1947 1.96523 12.3715 1.87416 12.5536C1.72684 12.5536 1.57952 12.5536 1.42773 12.5536C1.60452 12.3179 1.7813 12.0822 1.96344 11.8394Z" fill="#D8C2A5"/>
<path d="M8.57142 10.3218C8.68928 10.3512 8.80713 10.3807 8.92856 10.4111C8.57499 10.7204 8.57499 10.7204 8.21428 11.0361C8.18482 10.9477 8.15536 10.8593 8.125 10.7682C8.32589 10.5394 8.32589 10.5394 8.57142 10.3218Z" fill="#99D5D4"/>
<path d="M10.6253 3.80371C10.9713 3.95996 10.9713 3.95996 11.0717 4.16085C10.8655 4.19031 10.6592 4.21978 10.4467 4.25013C10.4172 4.19121 10.3878 4.13228 10.3574 4.07156C10.4163 4.07156 10.4753 4.07156 10.536 4.07156C10.5655 3.98317 10.5949 3.89478 10.6253 3.80371Z" fill="#452D32"/>
<path d="M6.69614 12.4644C6.7256 12.5527 6.75507 12.6411 6.78542 12.7322C6.6877 12.8096 6.58891 12.8856 6.48967 12.961C6.43477 13.0035 6.37987 13.0459 6.32331 13.0897C6.26956 13.119 6.21581 13.1484 6.16043 13.1786C6.07204 13.1492 5.98365 13.1197 5.89258 13.0893C6.15775 12.8831 6.42293 12.6769 6.69614 12.4644Z" fill="#CFF6FB"/>
<path d="M3.24218 11.8115C3.32136 11.8207 3.40055 11.8299 3.48213 11.8394C3.39284 12.018 3.39284 12.018 3.18882 12.094C3.10698 12.1168 3.02515 12.1396 2.94084 12.1631C2.81775 12.198 2.81775 12.198 2.69217 12.2335C2.62875 12.2508 2.56534 12.2681 2.5 12.2858C2.87362 11.8463 2.87362 11.8463 3.24218 11.8115Z" fill="#DCDEC0"/>
<path d="M10.089 9.69648C9.85995 9.84917 9.65332 9.95577 9.40262 10.0648C9.33045 10.0963 9.25829 10.1278 9.18394 10.1603C9.12904 10.184 9.07414 10.2078 9.01758 10.2322C9.17034 9.889 9.17034 9.889 9.40262 9.76344C9.64421 9.69602 9.83963 9.68223 10.089 9.69648Z" fill="#94D2D0"/>
<path d="M13.6602 7.19678C14.3231 7.28517 14.3231 7.28517 14.9994 7.37535C14.9994 7.40481 14.9994 7.43427 14.9994 7.46463C14.8266 7.48446 14.6535 7.50278 14.4805 7.52043C14.336 7.53597 14.336 7.53597 14.1885 7.55182C13.928 7.55392 13.928 7.55392 13.6602 7.37535C13.6602 7.31642 13.6602 7.25749 13.6602 7.19678Z" fill="#433D2D"/>
<path d="M6.87444 6.92871C6.9039 7.0171 6.93337 7.10549 6.96373 7.19656C7.11104 7.13764 7.25836 7.07871 7.41015 7.018C7.32176 7.22424 7.23336 7.43049 7.14229 7.64299C7.11283 7.52513 7.08337 7.40728 7.05301 7.28585C6.96462 7.28585 6.87623 7.28585 6.78516 7.28585C6.81462 7.16799 6.84408 7.05014 6.87444 6.92871Z" fill="#4A3232"/>
<path d="M9.19671 3.44678C9.2851 3.44678 9.37349 3.44678 9.46456 3.44678C9.4351 3.50571 9.40563 3.56463 9.37528 3.62535C9.31635 3.56642 9.25742 3.50749 9.19671 3.44678ZM9.19671 3.62535C9.25563 3.62535 9.31456 3.62535 9.37528 3.62535C9.37528 3.68427 9.37528 3.7432 9.37528 3.80392C9.55206 3.80392 9.72884 3.80392 9.91098 3.80392C9.91098 3.83338 9.91098 3.86284 9.91098 3.8932C9.51322 3.9374 9.51322 3.9374 9.10742 3.98248C9.13689 3.86463 9.16635 3.74677 9.19671 3.62535Z" fill="#4C343C"/>
<path d="M14.9989 11.125C15.2685 11.2328 15.4858 11.3928 15.7132 11.5714C15.3365 11.5286 15.1063 11.4673 14.8203 11.2143C14.8792 11.1848 14.9382 11.1554 14.9989 11.125Z" fill="#A0D9D8"/>
<path d="M3.92801 9.25C4.07533 9.27946 4.22265 9.30893 4.37443 9.33928C4.37443 9.39821 4.37443 9.45714 4.37443 9.51785C4.16422 9.64548 4.06369 9.70416 3.8164 9.66294C3.76484 9.64453 3.71328 9.62611 3.66016 9.60714C3.74855 9.48928 3.83694 9.37143 3.92801 9.25Z" fill="#311C25"/>
<path d="M11.6074 4.875C11.7547 5.02232 11.9021 5.16964 12.0538 5.32142C12.0244 5.38035 11.9949 5.43928 11.9646 5.49999C11.8467 5.47053 11.7288 5.44106 11.6074 5.41071C11.6074 5.23392 11.6074 5.05714 11.6074 4.875Z" fill="#373026"/>
<path d="M2.05273 12.6431C2.11165 12.6725 2.17058 12.702 2.23129 12.7324C1.97824 13.0229 1.8129 13.136 1.42773 13.1788C1.42773 13.1198 1.42773 13.0609 1.42773 13.0002C1.89857 12.7125 1.89857 12.7125 2.05273 12.6431Z" fill="#8FCFC2"/>
<path d="M13.1244 6.83936C13.3448 6.94219 13.4858 7.0222 13.6601 7.19649C13.5718 7.24069 13.5718 7.24069 13.4816 7.28578C13.2472 7.20207 13.2472 7.20207 13.0352 7.10721C13.0646 7.01882 13.0941 6.93043 13.1244 6.83936Z" fill="#323323"/>
<path d="M11.875 5.85742C12.0926 5.91322 12.0926 5.91322 12.3214 6.03599C12.394 6.315 12.394 6.315 12.4107 6.5717C11.9754 6.15876 11.9754 6.15876 11.875 5.85742Z" fill="#1B3133"/>
<path d="M13.2148 7.375C13.5483 7.41946 13.7338 7.45312 14.0184 7.64285C13.8677 7.70982 13.8677 7.70982 13.6613 7.73214C13.4157 7.55915 13.4157 7.55915 13.2148 7.375Z" fill="#1F3C3F"/>
<path d="M12.7676 7.01807C12.872 7.09025 12.9761 7.16288 13.0801 7.2357C13.1671 7.29629 13.1671 7.29629 13.2559 7.35811C13.301 7.39322 13.3461 7.42832 13.3926 7.46449C13.3926 7.49395 13.3926 7.52342 13.3926 7.55377C13.2452 7.55377 13.0979 7.55377 12.9461 7.55377C12.8872 7.37699 12.8283 7.20021 12.7676 7.01807Z" fill="#86B8B9"/>
<path d="M11.517 5.14307C11.5465 5.23146 11.5759 5.31985 11.6063 5.41092C11.6947 5.41092 11.7831 5.41092 11.8742 5.41092C11.9036 5.52878 11.9331 5.64663 11.9634 5.76806C11.875 5.81225 11.875 5.81225 11.7849 5.85734C11.6081 5.54797 11.6081 5.54797 11.4277 5.23235C11.4572 5.20289 11.4867 5.17342 11.517 5.14307Z" fill="#1F2E2E"/>
<path d="M11.1604 4.96436C11.131 5.05275 11.1015 5.14114 11.0711 5.23221C10.8866 5.29743 10.8866 5.29743 10.6638 5.33823C10.59 5.35239 10.5162 5.36655 10.4402 5.38113C10.3548 5.39581 10.3548 5.39581 10.2676 5.41078C10.5213 5.14078 10.7766 4.96436 11.1604 4.96436Z" fill="#D8DFC0"/>
<path d="M11.5176 4.60742C11.7533 4.60742 11.989 4.60742 12.2319 4.60742C12.0845 4.72528 11.9372 4.84313 11.7854 4.96456C11.697 4.90563 11.6086 4.8467 11.5176 4.78599C11.5176 4.72706 11.5176 4.66814 11.5176 4.60742Z" fill="#EBC9B2"/>
<path d="M11.697 1.92889C11.697 1.95835 11.697 1.98782 11.697 2.01817C11.627 2.02922 11.557 2.04027 11.4849 2.05165C11.238 2.08881 11.238 2.08881 11.072 2.28603C10.9541 2.19763 10.8363 2.10924 10.7148 2.01817C11.0429 1.9132 11.355 1.92231 11.697 1.92889Z" fill="#F5D1D8"/>
</svg>
