<svg width="16" height="16" viewBox="0 0 16 16" fill="none" xmlns="http://www.w3.org/2000/svg">
<path d="M0 0.785645C0.149735 0.785645 0.299469 0.785645 0.453741 0.785645C0.453741 4.94827 0.453741 9.11089 0.453741 13.3997C1.44936 12.8307 1.77496 12.1562 2.25329 11.168C3.5823 8.43231 3.5823 8.43231 4.35592 8.0455C4.87375 7.99474 5.22579 8.08286 5.62639 8.4085C6.18212 8.9596 6.66953 9.56931 7.16025 10.1777C7.37567 10.4349 7.60482 10.6687 7.84724 10.9002C7.98585 11.0402 7.98585 11.0402 8.18436 11.3124C8.5816 11.7943 9.1893 12.1537 9.79904 12.2727C10.2185 12.2884 10.6588 12.2607 11.0149 12.0164C11.7257 11.2457 11.9539 10.1278 12.1603 9.13448C12.1807 9.03805 12.2012 8.94161 12.2223 8.84225C12.425 7.88569 12.6244 6.92839 12.8076 5.96787C13.263 3.58508 13.263 3.58508 13.9752 2.87285C14.4775 2.81522 14.4775 2.81522 14.7012 2.87285C15.0887 3.18603 15.2712 3.52547 15.4385 3.98452C15.4602 4.04055 15.4818 4.09659 15.5041 4.15432C15.5473 4.26739 15.5892 4.38094 15.6298 4.49495C15.6746 4.61903 15.7214 4.74241 15.7707 4.86479C15.9868 5.43526 16.0074 5.95152 15.9983 6.55702C15.9979 6.65456 15.9975 6.75211 15.9971 6.8526C15.9956 7.1614 15.9922 7.47015 15.9887 7.77893C15.9873 7.98944 15.9861 8.19994 15.985 8.41045C15.982 8.92406 15.9775 9.43763 15.9717 9.95122C15.9169 9.96221 15.8622 9.97321 15.8058 9.98454C15.7333 9.99975 15.6607 10.015 15.586 10.0306C15.5144 10.0454 15.4428 10.0601 15.3691 10.0753C14.4722 10.3158 13.8356 11.1273 13.357 11.8796C12.7645 12.8055 11.9978 13.7693 10.9919 14.2504C10.0325 14.4423 9.29391 14.2192 8.48496 13.6889C8.34816 13.5935 8.21205 13.497 8.07659 13.3997C6.46545 12.1998 6.46545 12.1998 4.53741 11.9477C3.94023 12.1055 3.48366 12.3977 2.99469 12.7644C2.9348 12.7644 2.8749 12.7644 2.8132 12.7644C2.78325 12.8543 2.7533 12.9441 2.72245 13.0367C2.57073 13.1894 2.57073 13.1894 2.38214 13.3486C2.31616 13.4044 2.25019 13.4602 2.18221 13.5177C2.12091 13.5686 2.05962 13.6195 1.99646 13.6719C1.92159 13.7355 1.84673 13.7992 1.76959 13.8647C0.937732 14.4886 0.937732 14.4886 0.54449 14.4886C0.54449 14.5785 0.54449 14.6683 0.54449 14.7609C5.63547 14.7609 10.7264 14.7609 15.9717 14.7609C15.9717 14.9106 15.9717 15.0603 15.9717 15.2146C10.701 15.2146 5.43038 15.2146 0 15.2146C0 10.4531 0 5.69149 0 0.785645Z" fill="#A0D7F3"/>
<path d="M15.9721 9.95117C15.9721 11.5384 15.9721 13.1255 15.9721 14.7608C10.8811 14.7608 5.79017 14.7608 0.544922 14.7608C0.544922 14.671 0.544922 14.5811 0.544922 14.4886C0.608559 14.4566 0.672196 14.4247 0.737762 14.3918C1.32106 14.0883 1.7902 13.756 2.26914 13.3089C2.34962 13.2452 2.4301 13.1816 2.51302 13.116C2.73131 12.9474 2.73131 12.9474 2.92706 12.7247C3.59671 12.1007 4.41319 11.7913 5.32516 11.8126C6.28644 11.9538 7.12144 12.6232 7.88425 13.1861C8.74977 13.8229 9.59831 14.3491 10.7087 14.2163C12.0633 13.8424 12.8673 12.4879 13.6354 11.4088C14.2674 10.5371 14.844 9.95117 15.9721 9.95117Z" fill="#E0F2FA"/>
<path d="M15.9709 0.785645C15.9709 2.34288 15.9709 3.90012 15.9709 5.50455C15.8165 5.27292 15.733 5.102 15.6423 4.8445C15.602 4.7322 15.602 4.7322 15.5609 4.61763C15.5055 4.46098 15.4502 4.3043 15.395 4.14758C15.1846 3.45129 15.1846 3.45129 14.7004 2.9636C14.4344 2.93786 14.2328 2.91892 13.9744 2.9636C13.4541 3.42763 13.2854 4.18476 13.1237 4.84096C13.1044 4.91817 13.0852 4.99539 13.0653 5.07494C12.9014 5.75596 12.7777 6.44227 12.6586 7.13235C11.928 11.353 11.928 11.353 10.8833 12.1632C10.4397 12.385 10.0105 12.3998 9.52775 12.3107C8.21023 11.8426 7.13839 10.4246 6.35156 9.31598C6.35156 9.28603 6.35156 9.25609 6.35156 9.22523C6.52089 9.19382 6.52089 9.19382 6.69364 9.16178C8.24815 8.86226 9.57135 8.37969 10.5859 7.08981C10.626 7.04583 10.6661 7.00184 10.7075 6.95653C10.7674 6.95653 10.8273 6.95653 10.889 6.95653C10.9262 6.85567 10.9262 6.85567 10.9642 6.75279C11.0635 6.5192 11.1724 6.3386 11.319 6.1327C11.6483 5.64985 11.9116 5.14002 12.1765 4.61976C12.2703 4.43678 12.3642 4.25386 12.4583 4.07101C12.499 3.99115 12.5397 3.91128 12.5817 3.82899C13.1889 2.68574 13.9303 1.62478 15.0634 0.967141C15.1201 0.932281 15.1769 0.897421 15.2353 0.861504C15.4264 0.785645 15.4264 0.785645 15.9709 0.785645Z" fill="#F8BFCB"/>
<path d="M0 0.785645C0.149735 0.785645 0.299469 0.785645 0.453741 0.785645C0.453741 4.94827 0.453741 9.11089 0.453741 13.3997C1.44936 12.8307 1.77496 12.1562 2.25329 11.168C3.5823 8.43231 3.5823 8.43231 4.35592 8.0455C4.87375 7.99474 5.22579 8.08286 5.62639 8.4085C6.18212 8.9596 6.66953 9.56931 7.16025 10.1777C7.37567 10.4349 7.60482 10.6687 7.84724 10.9002C7.98585 11.0402 7.98585 11.0402 8.18436 11.3124C8.5816 11.7943 9.1893 12.1537 9.79904 12.2727C10.2185 12.2884 10.6588 12.2607 11.0149 12.0164C11.7257 11.2457 11.9539 10.1278 12.1603 9.13448C12.1807 9.03805 12.2012 8.94161 12.2223 8.84225C12.425 7.88569 12.6244 6.92839 12.8076 5.96787C13.263 3.58508 13.263 3.58508 13.9752 2.87285C14.4775 2.81522 14.4775 2.81522 14.7012 2.87285C15.0885 3.18589 15.2716 3.52547 15.4385 3.98452C15.4614 4.04516 15.4842 4.1058 15.5077 4.16828C15.5724 4.34117 15.636 4.51449 15.6994 4.68782C15.7308 4.76339 15.7621 4.83896 15.7944 4.91682C16.0228 5.49642 15.9974 6.06855 15.9717 6.68428C15.7023 6.37097 15.5708 6.02424 15.4329 5.64068C15.4093 5.57666 15.3857 5.51264 15.3613 5.44668C15.1869 4.9697 15.0274 4.48867 14.8788 4.00295C14.786 3.76512 14.6986 3.60006 14.5197 3.41734C14.3999 3.41734 14.2801 3.41734 14.1567 3.41734C13.6126 4.12014 13.508 5.15954 13.39 6.01572C13.3266 6.40295 13.2287 6.77749 13.1287 7.15668C12.9536 7.83571 12.8249 8.52379 12.6981 9.21327C12.4617 10.4518 12.125 11.8345 11.0543 12.6113C10.5806 12.8543 10.0851 12.9244 9.5665 12.7981C8.73394 12.4924 8.10671 11.9189 7.4924 11.2954C7.43332 11.2359 7.37424 11.1764 7.31336 11.1151C6.90604 10.7002 6.53132 10.272 6.17017 9.81616C5.98457 9.58216 5.79382 9.35436 5.59803 9.12881C5.54223 9.06412 5.48643 8.99943 5.42894 8.93278C5.20078 8.71048 4.9926 8.61183 4.68488 8.53895C4.29965 8.6215 4.12824 8.9162 3.90217 9.22523C3.72499 9.51881 3.56854 9.82086 3.4144 10.127C3.37358 10.2064 3.33275 10.2858 3.29069 10.3676C3.19125 10.5611 3.09261 10.7551 2.99469 10.9494C3.05459 10.9494 3.11448 10.9494 3.17619 10.9494C3.19842 10.897 3.22064 10.8446 3.24354 10.7906C3.56857 10.2092 4.26221 9.68954 4.90041 9.49748C5.33561 9.4421 5.61855 9.43175 5.98938 9.67897C5.98938 9.73887 5.98938 9.79876 5.98938 9.86047C5.9158 9.86515 5.84222 9.86983 5.76641 9.87465C4.4882 10.0056 3.78874 10.7262 2.99469 11.6754C1.61665 13.3201 1.61665 13.3201 0.816734 13.8534C0.696947 13.8534 0.577159 13.8534 0.453741 13.8534C0.453741 14.1529 0.453741 14.4523 0.453741 14.7609C5.57467 14.7609 10.6956 14.7609 15.9717 14.7609C15.9717 14.9106 15.9717 15.0603 15.9717 15.2146C10.701 15.2146 5.43038 15.2146 0 15.2146C0 10.4531 0 5.69149 0 0.785645Z" fill="white"/>
<path d="M12.522 6.23047C12.6118 6.26042 12.7017 6.29036 12.7942 6.32122C11.9871 11.3067 11.9871 11.3067 10.8828 12.1631C10.4392 12.385 10.0101 12.3997 9.52728 12.3106C8.56595 11.9691 7.44453 10.9583 6.98633 10.0419C7.13793 10.0672 7.13793 10.0672 7.2926 10.0929C7.9546 10.1741 8.50774 10.1323 9.07354 9.76965C9.20708 9.73989 9.34145 9.71375 9.47623 9.69025C9.89665 9.60588 10.1252 9.43693 10.4348 9.13441C10.5171 9.05767 10.5995 8.98094 10.6843 8.90187C10.8626 8.70877 10.9718 8.55861 11.07 8.31768C11.1299 8.31768 11.1898 8.31768 11.2515 8.31768C11.2721 8.2503 11.2927 8.18292 11.3139 8.1135C11.4556 7.81654 11.6256 7.69513 11.8867 7.50094C11.9167 7.44105 11.9466 7.38116 11.9775 7.31945C12.0374 7.31945 12.0973 7.31945 12.159 7.31945C12.1889 7.13977 12.2189 6.96008 12.2497 6.77496C12.1898 6.80491 12.1299 6.83485 12.0682 6.86571C12.1856 6.60395 12.3096 6.42356 12.522 6.23047Z" fill="#F9D6AD"/>
<path d="M0 0.785645C0.119788 0.785645 0.239575 0.785645 0.362993 0.785645C0.362993 4.97821 0.362993 9.17078 0.362993 13.4904C0.452834 13.4904 0.542675 13.4904 0.635238 13.4904C0.605291 13.5802 0.575344 13.6701 0.54449 13.7626C0.454649 13.7626 0.364808 13.7626 0.272245 13.7626C0.302192 14.0921 0.332139 14.4215 0.362993 14.7609C5.51386 14.7609 10.6647 14.7609 15.9717 14.7609C15.9717 14.9106 15.9717 15.0603 15.9717 15.2146C10.701 15.2146 5.43038 15.2146 0 15.2146C0 10.4531 0 5.69149 0 0.785645Z" fill="white"/>
<path d="M14.1571 3.32666C14.3612 3.33233 14.3612 3.33233 14.6108 3.41741C14.9155 3.87986 15.0982 4.35619 15.2687 4.88072C15.2931 4.95196 15.3174 5.02321 15.3425 5.09661C15.4604 5.45354 15.552 5.75874 15.5183 6.13986C15.4191 6.16419 15.3199 6.18852 15.2177 6.21359C14.9074 6.31351 14.8126 6.3599 14.6108 6.5936C14.5509 6.5936 14.491 6.5936 14.4293 6.5936C14.3994 6.68344 14.3694 6.77328 14.3386 6.86584C14.2183 6.92789 14.0973 6.98832 13.9756 7.04734C13.9157 7.13718 13.8558 7.22702 13.7941 7.31958C13.7342 7.31958 13.6743 7.31958 13.6126 7.31958C13.6037 7.37644 13.5948 7.43329 13.5856 7.49186C13.5721 7.56603 13.5585 7.64019 13.5445 7.71661C13.5319 7.7903 13.5192 7.864 13.5062 7.93993C13.4311 8.13632 13.4311 8.13632 13.2496 8.24125C13.1897 8.26651 13.1298 8.29178 13.0681 8.31781C12.953 8.50236 12.953 8.50236 12.8866 8.68081C12.797 8.39725 12.7989 8.20387 12.86 7.91406C12.8759 7.83702 12.8917 7.75999 12.908 7.68063C12.9253 7.60079 12.9425 7.52095 12.9603 7.43869C12.9846 7.32156 12.9846 7.32156 13.0094 7.20207C13.1667 6.44838 13.3332 5.69668 13.5162 4.94879C13.5304 4.88854 13.5446 4.8283 13.5592 4.76623C13.6873 4.24459 13.8567 3.77722 14.1571 3.32666Z" fill="#F5D3B0"/>
<path d="M0.453741 14.7607C5.57467 14.7607 10.6956 14.7607 15.9717 14.7607C15.9717 14.9105 15.9717 15.0602 15.9717 15.2145C10.701 15.2145 5.43038 15.2145 0 15.2145C0 15.1845 0 15.1546 0 15.1237C0.943328 15.0788 0.943328 15.0788 1.90571 15.033C1.90571 15.003 1.90571 14.9731 1.90571 14.9422C1.42656 14.9123 0.947412 14.8823 0.453741 14.8515C0.453741 14.8215 0.453741 14.7916 0.453741 14.7607Z" fill="white"/>
<path d="M14.5037 2.82227C14.8173 2.90306 14.9498 3.08099 15.1542 3.3267C15.263 3.54837 15.3541 3.75445 15.4378 3.98462C15.4606 4.04526 15.4835 4.1059 15.507 4.16838C15.5716 4.34128 15.6352 4.51459 15.6987 4.68792C15.7301 4.76349 15.7614 4.83906 15.7937 4.91692C16.0221 5.49652 15.9966 6.06865 15.9709 6.68438C15.7016 6.37107 15.5701 6.02434 15.4321 5.64078C15.4085 5.57676 15.3849 5.51274 15.3606 5.44679C15.1861 4.96981 15.0266 4.48877 14.8781 4.00306C14.7853 3.76523 14.6979 3.60016 14.519 3.41745C14.3992 3.41745 14.2794 3.41745 14.156 3.41745C13.6132 4.11852 13.5073 5.1558 13.3903 6.01015C13.311 6.49347 13.1856 6.96355 13.0628 7.43731C12.9643 7.81998 12.8775 8.20378 12.7948 8.5901C12.7349 8.56015 12.675 8.5302 12.6133 8.49935C12.6432 8.58919 12.6732 8.67903 12.704 8.77159C12.6152 8.86425 12.5243 8.95496 12.4318 9.04384C12.4018 9.04384 12.3719 9.04384 12.341 9.04384C12.3104 8.42448 12.4235 7.83684 12.5339 7.22887C12.5541 7.11724 12.5743 7.00562 12.5952 6.89061C12.7318 6.15862 12.8849 5.43267 13.067 4.71061C13.0874 4.62709 13.1077 4.54356 13.1287 4.45751C13.3356 3.67347 13.6174 2.87541 14.5037 2.82227Z" fill="white"/>
<path d="M0.362379 0.785645C0.392326 0.785645 0.422273 0.785645 0.453127 0.785645C0.453127 4.94827 0.453127 9.11089 0.453127 13.3997C0.956772 13.1248 0.956772 13.1248 1.37762 12.7928C1.63285 12.5829 1.63285 12.5829 1.83704 12.5375C1.88944 12.5226 1.94185 12.5076 1.99585 12.4922C2.06094 12.3428 2.12137 12.1914 2.17734 12.0384C2.3121 11.9486 2.3121 11.9486 2.44959 11.8569C2.38969 11.797 2.3298 11.7371 2.26809 11.6754C2.35793 11.5856 2.35793 11.5856 2.44959 11.4939C2.50948 11.5239 2.56938 11.5538 2.63108 11.5847C2.67413 11.5136 2.71718 11.4424 2.76154 11.3692C3.33398 10.5215 3.98972 9.95251 4.89979 9.49748C5.08661 9.48223 5.08661 9.48223 5.30249 9.48046C5.37349 9.47918 5.4445 9.47789 5.51766 9.47656C5.71653 9.49748 5.71653 9.49748 5.98877 9.67897C5.98877 9.73887 5.98877 9.79876 5.98877 9.86047C5.91519 9.86515 5.84161 9.86983 5.7658 9.87465C4.48759 10.0056 3.78812 10.7262 2.99408 11.6754C1.61604 13.3201 1.61604 13.3201 0.81612 13.8534C0.696332 13.8534 0.576545 13.8534 0.453127 13.8534C0.453127 14.1529 0.453127 14.4523 0.453127 14.7609C0.271631 14.5794 0.271631 14.5794 0.253906 14.383C0.256012 14.3093 0.258118 14.2356 0.260287 14.1597C0.261925 14.0855 0.263562 14.0113 0.26525 13.9349C0.267355 13.8781 0.269461 13.8212 0.271631 13.7626C0.361471 13.7327 0.451312 13.7028 0.543875 13.6719C0.588796 13.5821 0.588796 13.5821 0.634624 13.4904C0.544783 13.4904 0.454942 13.4904 0.362379 13.4904C0.362379 9.29783 0.362379 5.10526 0.362379 0.785645Z" fill="white"/>
<path d="M5.08203 8.31787C6.04836 8.44123 6.58712 9.46953 7.15719 10.1747C7.36889 10.4267 7.592 10.6578 7.83142 10.8833C7.98598 11.0403 7.98598 11.0403 8.1898 11.3058C8.4481 11.6197 8.74763 11.7935 9.10331 11.9818C9.16186 12.014 9.22041 12.0462 9.28073 12.0793C9.42334 12.1575 9.56669 12.2343 9.71019 12.3108C9.71019 12.3707 9.71019 12.4306 9.71019 12.4923C9.56046 12.4923 9.41072 12.4923 9.25645 12.4923C9.25645 12.4324 9.25645 12.3725 9.25645 12.3108C9.07958 12.3118 9.07958 12.3118 8.89913 12.3129C8.30888 12.2462 8.01099 11.8789 7.62298 11.46C7.55152 11.3857 7.48006 11.3114 7.40644 11.2348C6.96951 10.7758 6.55235 10.3059 6.16144 9.80706C5.97692 9.57232 5.78419 9.34728 5.58682 9.12326C5.52891 9.05752 5.47101 8.99178 5.41135 8.92404C5.27164 8.76316 5.27164 8.76316 5.08203 8.68086C5.08203 8.56108 5.08203 8.44129 5.08203 8.31787Z" fill="white"/>
<path d="M4.76373 8.48193C5.15819 8.61577 5.33469 8.74551 5.62584 9.04344C5.75062 9.29867 5.75062 9.29867 5.80734 9.49718C5.72644 9.49753 5.72644 9.49753 5.64392 9.49789C4.71638 9.54116 4.00827 9.96183 3.37911 10.6301C3.2582 10.7673 3.2582 10.7673 3.17564 10.9492C3.11574 10.9492 3.05585 10.9492 2.99414 10.9492C3.12607 10.513 3.30374 10.125 3.51594 9.72405C3.54519 9.66615 3.57443 9.60824 3.60456 9.54858C3.86216 9.06035 4.17111 8.51368 4.76373 8.48193Z" fill="#F2D5AC"/>
<path d="M13.1577 5.41406C13.3392 5.59556 13.3392 5.59556 13.3612 5.92488C13.3512 6.31452 13.2727 6.66765 13.1691 7.04186C13.1357 7.16839 13.1024 7.29494 13.0691 7.42151C13.0531 7.48174 13.037 7.54197 13.0205 7.60403C12.9352 7.93061 12.8654 8.26029 12.7947 8.59025C12.7348 8.5603 12.6749 8.53036 12.6132 8.4995C12.6432 8.58934 12.6731 8.67918 12.704 8.77175C12.6152 8.86441 12.5243 8.95511 12.4317 9.04399C12.4018 9.04399 12.3718 9.04399 12.341 9.04399C12.3273 8.38289 12.4384 7.76953 12.5565 7.12126C12.5766 7.00598 12.5968 6.8907 12.6175 6.77192C12.6374 6.66131 12.6573 6.55071 12.6778 6.43675C12.6958 6.33624 12.7139 6.23574 12.7325 6.13218C12.7886 5.89375 12.8469 5.71175 12.9762 5.50481C13.0361 5.47486 13.096 5.44492 13.1577 5.41406Z" fill="white"/>
<path d="M15.5181 5.9585C15.7291 6.21741 15.8585 6.46131 15.9719 6.77523C15.882 6.77523 15.7922 6.77523 15.6996 6.77523C15.6547 6.64047 15.6547 6.64047 15.6089 6.50299C15.3045 6.43354 15.3045 6.43354 14.9736 6.41224C14.8071 6.53328 14.8071 6.53328 14.7014 6.68448C14.6415 6.68448 14.5816 6.68448 14.5199 6.68448C14.49 6.77432 14.46 6.86416 14.4292 6.95673C14.3693 6.95673 14.3094 6.95673 14.2477 6.95673C14.2233 7.05218 14.199 7.14764 14.1739 7.24599C14.0776 7.55539 13.9796 7.78268 13.7939 8.04571C13.734 8.07565 13.6741 8.1056 13.6124 8.13645C13.5168 8.34605 13.4257 8.5578 13.3402 8.77169C13.2803 8.77169 13.2204 8.77169 13.1587 8.77169C13.1287 8.92143 13.0988 9.07116 13.0679 9.22543C13.008 9.22543 12.9481 9.22543 12.8864 9.22543C12.8864 9.28533 12.8864 9.34522 12.8864 9.40693C12.8265 9.40693 12.7666 9.40693 12.7049 9.40693C12.7049 9.61656 12.7049 9.82619 12.7049 10.0422C12.645 10.0422 12.5851 10.0422 12.5234 10.0422C12.5652 9.40733 12.629 8.83472 13.1133 8.37467C13.3412 8.13534 13.3877 8.03319 13.4763 7.72809C13.5905 7.33878 13.7436 7.12402 14.0662 6.86598C14.156 6.83603 14.2458 6.80608 14.3384 6.77523C14.4916 6.62591 14.6428 6.47459 14.7921 6.32149C15.0851 6.1262 15.1809 6.12176 15.5181 6.13999C15.5181 6.0801 15.5181 6.0202 15.5181 5.9585Z" fill="#C2D8D8"/>
<path d="M2.99494 9.67871C3.05483 9.7985 3.11473 9.91829 3.17644 10.0417C3.11654 10.0417 3.05665 10.0417 2.99494 10.0417C3.09047 10.1468 3.09047 10.1468 3.26719 10.2232C3.11158 11.0799 3.11158 11.0799 2.81344 11.4029C2.75355 11.4928 2.69366 11.5826 2.63195 11.6752C2.54211 11.6752 2.45227 11.6752 2.3597 11.6752C2.4196 11.7351 2.47949 11.795 2.5412 11.8567C2.47008 11.924 2.39895 11.9914 2.32567 12.0609C2.12693 12.2691 2.01238 12.4122 1.90596 12.6734C1.78617 12.6734 1.66639 12.6734 1.54297 12.6734C1.69142 12.2803 1.87523 11.9078 2.06477 11.5334C2.12953 11.4047 2.19428 11.276 2.25903 11.1473C2.29114 11.0837 2.32325 11.02 2.35634 10.9545C2.49424 10.6808 2.63115 10.4066 2.76807 10.1325C2.88151 9.90558 2.88151 9.90558 2.99494 9.67871Z" fill="white"/>
<path d="M5.71673 9.49725C5.80657 9.55715 5.89641 9.61704 5.98898 9.67875C5.98898 9.73864 5.98898 9.79854 5.98898 9.86025C5.87861 9.86727 5.87861 9.86727 5.76601 9.87443C4.75416 9.97808 4.14441 10.4134 3.44803 11.1307C3.41808 11.0409 3.38813 10.951 3.35728 10.8585C3.29738 10.8285 3.23749 10.7986 3.17578 10.7677C3.81924 10.0413 4.67214 9.27093 5.71673 9.49725Z" fill="white"/>
<path d="M12.8864 3.23584C13.0196 3.50235 12.956 3.67762 12.8864 3.96183C12.7975 4.05441 12.7068 4.14527 12.6141 4.23407C12.601 4.30519 12.5879 4.37632 12.5744 4.4496C12.5093 4.75369 12.354 4.901 12.1604 5.14155C12.0464 5.43006 12.0464 5.43006 11.9789 5.68604C11.919 5.68604 11.8591 5.68604 11.7974 5.68604C11.7805 5.77214 11.7637 5.85824 11.7463 5.94694C11.5112 6.78186 10.8693 7.40941 10.1639 7.864C10.104 7.83405 10.0441 7.80411 9.98242 7.77325C10.0272 7.7295 10.072 7.68575 10.1182 7.64068C10.1763 7.58335 10.2345 7.52603 10.2944 7.46698C10.3523 7.41012 10.4102 7.35327 10.4698 7.2947C10.6248 7.14553 10.6248 7.14553 10.7084 6.95652C10.7683 6.95652 10.8282 6.95652 10.8899 6.95652C10.9147 6.88928 10.9396 6.82203 10.9651 6.75276C11.0644 6.51933 11.1731 6.33882 11.3195 6.13305C11.6503 5.64805 11.9161 5.13619 12.1831 4.61408C12.255 4.47484 12.255 4.47484 12.3284 4.33279C12.5166 3.9682 12.7035 3.60311 12.8864 3.23584Z" fill="#F0C7D0"/>
<path d="M6.35294 3.5083C6.44278 3.53825 6.53262 3.56819 6.62518 3.59905C6.65139 3.6552 6.67759 3.71135 6.70459 3.7692C6.83877 4.02266 7.01649 4.09306 7.26042 4.23429C7.26042 4.29418 7.26042 4.35407 7.26042 4.41578C7.11062 4.5089 6.95916 4.59937 6.80668 4.68803C6.64774 4.83163 6.64774 4.83163 6.53444 4.96027C6.26937 4.84145 6.10282 4.71015 5.8992 4.50653C5.80936 4.47658 5.71952 4.44664 5.62695 4.41578C5.62695 4.35589 5.62695 4.296 5.62695 4.23429C5.69621 4.19498 5.76546 4.15568 5.83681 4.11518C6.10967 3.94385 6.20761 3.79131 6.35294 3.5083Z" fill="#F4DCBD"/>
<path d="M2.35938 3.05469C3.31768 3.05469 4.27598 3.05469 5.26332 3.05469C5.26332 3.17448 5.26332 3.29426 5.26332 3.41768C4.30502 3.41768 3.34672 3.41768 2.35938 3.41768C2.35938 3.29789 2.35938 3.17811 2.35938 3.05469Z" fill="white"/>
<path d="M15.9706 0.785645C15.9706 2.34288 15.9706 3.90012 15.9706 5.50455C15.9407 5.50455 15.9107 5.50455 15.8799 5.50455C15.8499 4.03715 15.82 2.56976 15.7891 1.05789C15.0292 1.15006 15.0292 1.15006 14.7909 1.42088C14.7011 1.42088 14.6112 1.42088 14.5187 1.42088C14.5037 1.48452 14.4887 1.54816 14.4733 1.61372C14.275 1.99383 13.9609 2.18247 13.6112 2.41911C13.7954 1.74366 14.3533 1.35291 14.9327 1.01819C15.3399 0.791817 15.4674 0.785645 15.9706 0.785645ZM13.5204 2.41911C13.5504 2.47901 13.5803 2.5389 13.6112 2.60061C13.5513 2.57066 13.4914 2.54072 13.4297 2.50986C13.4596 2.47991 13.4896 2.44997 13.5204 2.41911Z" fill="#EFCED7"/>
<path d="M11.162 11.9478C11.1321 12.1574 11.1022 12.367 11.0713 12.583C10.4991 12.8479 10.0554 12.9248 9.43783 12.7645C9.15033 12.6346 8.88489 12.4834 8.62109 12.3107C8.86309 12.1898 8.99922 12.2499 9.25633 12.3107C9.25633 12.3706 9.25633 12.4305 9.25633 12.4922C9.40607 12.4922 9.5558 12.4922 9.71007 12.4922C9.71007 12.4323 9.71007 12.3725 9.71007 12.3107C9.76377 12.3074 9.81746 12.304 9.87278 12.3005C10.3322 12.2622 10.7578 11.9478 11.162 11.9478Z" fill="white"/>
<path d="M1.99585 13.0366C2.08659 13.3089 2.08659 13.3089 2.01853 13.5584C1.71414 13.9981 1.28922 14.2478 0.816118 14.4886C0.726277 14.4886 0.636436 14.4886 0.543873 14.4886C0.513926 14.5784 0.483979 14.6683 0.453125 14.7608C0.453125 14.4614 0.453125 14.1619 0.453125 13.8534C0.550453 13.8141 0.64778 13.7747 0.748057 13.7342C0.953087 13.6474 1.10276 13.5701 1.2812 13.4336C1.48543 13.2839 1.65927 13.2646 1.9051 13.2181C1.93504 13.1582 1.96499 13.0983 1.99585 13.0366Z" fill="#A8D5EE"/>
<path d="M1.99609 5.59521C2.77471 5.59521 3.55333 5.59521 4.35555 5.59521C4.35555 5.715 4.35555 5.83479 4.35555 5.95821C3.57693 5.95821 2.79831 5.95821 1.99609 5.95821C1.99609 5.83842 1.99609 5.71863 1.99609 5.59521Z" fill="white"/>
<path d="M1.81435 11.8569C1.87424 11.8869 1.93414 11.9168 1.99585 11.9477C1.2657 13.0706 1.2657 13.0706 0.72537 13.3997C0.635529 13.3997 0.545688 13.3997 0.453125 13.3997C0.453125 13.1601 0.453125 12.9205 0.453125 12.6737C0.51337 12.6451 0.573615 12.6166 0.635685 12.5872C1.06631 12.3785 1.45553 12.1799 1.81435 11.8569Z" fill="#ECC5D1"/>
<path d="M12.2507 6.68457C12.2507 6.92243 12.2223 7.09379 12.1599 7.31981C12.1001 7.31981 12.0402 7.31981 11.9785 7.31981C11.9485 7.40965 11.9186 7.49949 11.8877 7.59205C11.6797 7.81126 11.4644 8.01807 11.2411 8.22162C11.0563 8.40411 11.0563 8.40411 10.9632 8.66402C10.6776 9.1662 10.1832 9.45435 9.70974 9.77001C9.6199 9.74006 9.53006 9.71012 9.4375 9.67926C9.7002 9.38891 10.0032 9.20348 10.362 9.0497C10.5728 8.9261 10.6159 8.81385 10.708 8.59028C10.7685 8.46929 10.829 8.34829 10.8895 8.22729C10.9793 8.22729 11.0692 8.22729 11.1617 8.22729C11.1823 8.12809 11.2029 8.02889 11.2241 7.92669C11.3627 7.5372 11.4476 7.50728 11.797 7.31981C11.9511 7.09316 11.9511 7.09316 12.0692 6.86607C12.1291 6.80617 12.189 6.74628 12.2507 6.68457Z" fill="#F9C7BD"/>
<path d="M12.977 6.86572C13.0069 6.86572 13.0369 6.86572 13.0677 6.86572C13.109 7.47146 12.9559 8.00858 12.7955 8.58994C12.7356 8.55999 12.6757 8.53005 12.614 8.49919C12.6439 8.58903 12.6739 8.67887 12.7047 8.77144C12.6159 8.86409 12.5251 8.9548 12.4325 9.04368C12.4025 9.04368 12.3726 9.04368 12.3417 9.04368C12.3037 8.47318 12.4074 7.94416 12.614 7.41021C12.7019 7.31672 12.7924 7.22552 12.8862 7.13797C12.9162 7.04813 12.9461 6.95829 12.977 6.86572Z" fill="white"/>
<path d="M15.7907 6.7749C15.8506 6.7749 15.9105 6.7749 15.9722 6.7749C15.9722 7.82304 15.9722 8.87119 15.9722 9.95109C15.7925 9.95109 15.6129 9.95109 15.4277 9.95109C15.4717 9.91982 15.5157 9.88855 15.561 9.85633C15.7648 9.59611 15.7435 9.33456 15.7464 9.01702C15.7489 8.92092 15.7489 8.92092 15.7514 8.82287C15.7563 8.61854 15.7593 8.41423 15.7624 8.20986C15.7654 8.07119 15.7685 7.93253 15.7718 7.79387C15.7795 7.45423 15.7855 7.11459 15.7907 6.7749Z" fill="#B3DBEB"/>
<path d="M12.523 6.23047C12.6128 6.26042 12.7027 6.29036 12.7952 6.32122C12.6755 7.01 12.5557 7.69878 12.4323 8.40843C12.4023 8.40843 12.3724 8.40843 12.3415 8.40843C12.3415 8.01912 12.3415 7.62981 12.3415 7.2287C12.2517 7.27362 12.2517 7.27362 12.16 7.31945C12.19 7.13977 12.2199 6.96008 12.2508 6.77496C12.1609 6.81988 12.1609 6.81988 12.0693 6.86571C12.1866 6.60395 12.3106 6.42356 12.523 6.23047ZM11.9785 7.31945C12.0684 7.36437 12.0684 7.36437 12.16 7.4102C12.0702 7.45512 12.0702 7.45512 11.9785 7.50094C11.9785 7.44105 11.9785 7.38116 11.9785 7.31945Z" fill="#EACCA8"/>
<path d="M12.1612 10.3145C12.2211 10.3444 12.281 10.3743 12.3427 10.4052C12.2828 11.165 11.8684 11.864 11.3445 12.4017C11.2547 12.4316 11.1648 12.4616 11.0723 12.4924C11.1022 12.2828 11.1322 12.0732 11.163 11.8572C11.3127 11.8272 11.4625 11.7973 11.6168 11.7664C11.6332 11.7148 11.6497 11.6632 11.6667 11.6101C11.811 11.1669 11.9711 10.74 12.1612 10.3145Z" fill="white"/>
<path d="M3.62938 9.49756C3.71922 9.55745 3.80906 9.61735 3.90162 9.67906C3.99146 9.67906 4.0813 9.67906 4.17387 9.67906C4.23376 9.73895 4.29366 9.79884 4.35536 9.86055C4.30822 9.89354 4.26108 9.92653 4.21251 9.96052C3.89604 10.1887 3.61191 10.4043 3.36848 10.7113C3.30484 10.7899 3.2412 10.8685 3.17564 10.9495C3.11574 10.9495 3.05585 10.9495 2.99414 10.9495C3.14348 10.4336 3.38348 9.97246 3.62938 9.49756Z" fill="#DBC9AC"/>
<path d="M4.44714 8.68066C5.17313 8.76443 5.17313 8.76443 5.44537 8.95291C5.47532 9.04275 5.50527 9.13259 5.53612 9.22515C5.50618 9.28505 5.47623 9.34494 5.44537 9.40665C4.77492 9.43962 4.77492 9.43962 4.53789 9.29889C4.41911 9.08359 4.42752 8.92264 4.44714 8.68066Z" fill="#F9D7AD"/>
<path d="M15.6092 4.68799C15.9239 5.15996 15.995 5.56643 15.9836 6.12862C15.9819 6.2332 15.9803 6.33778 15.9786 6.44553C15.9754 6.56379 15.9754 6.56379 15.9722 6.68445C15.6835 6.32475 15.5035 5.96236 15.4277 5.50472C15.5468 5.22681 15.5468 5.22681 15.7 5.05098C15.6401 5.02103 15.5802 4.99109 15.5185 4.96023C15.5484 4.87039 15.5784 4.78055 15.6092 4.68799Z" fill="white"/>
<path d="M2.99566 9.67871C3.05556 9.7985 3.11545 9.91829 3.17716 10.0417C3.11726 10.0417 3.05737 10.0417 2.99566 10.0417C3.09119 10.1468 3.09119 10.1468 3.26791 10.2232C3.18436 10.7956 3.08661 11.1234 2.63267 11.4937C2.72251 11.1792 2.72251 11.1792 2.81416 10.8584C2.69438 10.8884 2.57459 10.9183 2.45117 10.9492C2.58654 10.498 2.77828 10.0945 2.99566 9.67871Z" fill="white"/>
<path d="M13.9751 2.87256C14.035 2.90251 14.0949 2.93245 14.1566 2.96331C14.0967 3.08309 14.0368 3.20288 13.9751 3.3263C14.035 3.35625 14.0949 3.38619 14.1566 3.41705C14.1154 3.48443 14.0742 3.55181 14.0318 3.62123C13.9128 3.82263 13.8042 4.02322 13.7028 4.23378C13.7028 4.14394 13.7028 4.0541 13.7028 3.96154C13.583 3.99148 13.4633 4.02143 13.3398 4.05229C13.3973 3.56374 13.6311 3.21658 13.9751 2.87256Z" fill="white"/>
<path d="M4.264 10.3145C4.38379 10.4342 4.50358 10.554 4.62699 10.6774C4.47726 10.8571 4.32752 11.0368 4.17325 11.2219C4.1433 11.162 4.11336 11.1021 4.0825 11.0404C3.87287 11.1003 3.66325 11.1602 3.44727 11.2219C3.67997 10.8427 3.90276 10.5753 4.264 10.3145Z" fill="#A1D4ED"/>
<path d="M8.62109 12.2197C8.83072 12.2497 9.04035 12.2796 9.25633 12.3105C9.25633 12.3704 9.25633 12.4303 9.25633 12.492C9.88522 12.5369 9.88522 12.5369 10.5268 12.5827C10.5268 12.6426 10.5268 12.7025 10.5268 12.7642C10.1867 12.9343 9.7992 12.8416 9.43783 12.7642C9.14941 12.6359 8.88501 12.4832 8.62109 12.3105C8.62109 12.2805 8.62109 12.2506 8.62109 12.2197Z" fill="white"/>
<path d="M1.45136 13.3086C1.4813 13.4284 1.51125 13.5482 1.5421 13.6716C1.48221 13.6716 1.42232 13.6716 1.36061 13.6716C1.30071 13.7914 1.24082 13.9112 1.17911 14.0346C1.11922 13.9747 1.05932 13.9148 0.997615 13.8531C0.793631 14.0393 0.725168 14.1259 0.634622 14.3976C0.694515 14.4275 0.754409 14.4575 0.816118 14.4883C0.726277 14.4883 0.636436 14.4883 0.543873 14.4883C0.513926 14.5782 0.483979 14.668 0.453125 14.7606C0.453125 14.4611 0.453125 14.1616 0.453125 13.8531C0.550453 13.8138 0.64778 13.7745 0.748057 13.734C1.01238 13.6214 1.22996 13.4946 1.45136 13.3086Z" fill="#AFD2E1"/>
<path d="M9.07578 9.76957C8.69681 10.1891 8.30592 10.1903 7.77305 10.2251C7.53306 10.2233 7.53306 10.2233 7.35156 10.1326C7.38151 10.0427 7.41146 9.95288 7.44231 9.86032C7.62946 9.84497 7.81663 9.8299 8.00382 9.81495C8.16016 9.80231 8.16016 9.80231 8.31966 9.78942C8.5731 9.77278 8.82197 9.76575 9.07578 9.76957Z" fill="#FBCABC"/>
<path d="M15.5185 5.9585C15.7295 6.21741 15.8589 6.46131 15.9723 6.77523C15.8824 6.77523 15.7926 6.77523 15.7 6.77523C15.6701 6.68539 15.6401 6.59555 15.6093 6.50299C15.3048 6.43354 15.3048 6.43354 14.974 6.41224C14.8075 6.53328 14.8075 6.53328 14.7018 6.68448C14.6419 6.68448 14.582 6.68448 14.5203 6.68448C14.4903 6.77432 14.4604 6.86416 14.4295 6.95673C14.3696 6.92678 14.3098 6.89683 14.248 6.86598C14.9466 6.14805 14.9466 6.14805 15.3143 6.12298C15.4154 6.1314 15.4154 6.1314 15.5185 6.13999C15.5185 6.0801 15.5185 6.0202 15.5185 5.9585Z" fill="#B4D3D5"/>
<path d="M6.98633 10.7681C7.4664 11.1681 7.91088 11.5917 8.34755 12.0385C8.25771 12.0685 8.16787 12.0984 8.07531 12.1293C8.07531 12.0694 8.07531 12.0095 8.07531 11.9478C8.02126 11.9389 7.96722 11.93 7.91153 11.9209C7.56142 11.8087 7.3761 11.5128 7.16782 11.2218C7.04305 10.9552 7.04305 10.9552 6.98633 10.7681Z" fill="#A0C7DD"/>
<path d="M5.31414 9.46936C5.38351 9.46972 5.45288 9.47007 5.52435 9.47043C5.71684 9.49772 5.71684 9.49772 5.98908 9.67922C5.98908 9.73911 5.98908 9.79901 5.98908 9.86072C5.50993 9.83077 5.03078 9.80082 4.53711 9.76997C4.94863 9.46132 4.94863 9.46132 5.31414 9.46936Z" fill="white"/>
<path d="M2.45045 12.2197C2.4804 12.3096 2.51035 12.3994 2.5412 12.492C2.45328 12.6449 2.36244 12.7961 2.26895 12.9457C2.26895 13.0356 2.26895 13.1254 2.26895 13.218C2.00648 13.293 1.82543 13.3087 1.54297 13.3087C1.57806 13.2681 1.61316 13.2275 1.64931 13.1857C1.92265 12.8684 2.1912 12.5488 2.45045 12.2197Z" fill="#9BC3DB"/>
<path d="M12.5231 8.31787C12.6639 8.4189 12.6639 8.4189 12.7954 8.59012C12.7823 8.85492 12.7823 8.85492 12.7217 9.15162C12.7024 9.25023 12.6831 9.34885 12.6632 9.45045C12.6469 9.5259 12.6307 9.60136 12.6139 9.67909C12.5727 9.63417 12.5315 9.58925 12.4891 9.54297C12.3529 9.38633 12.3529 9.38633 12.1602 9.40685C12.1901 9.16727 12.2201 8.9277 12.2509 8.68086C12.3407 8.81563 12.3407 8.81563 12.4324 8.95311C12.4923 8.95311 12.5522 8.95311 12.6139 8.95311C12.584 8.74348 12.554 8.53385 12.5231 8.31787Z" fill="white"/>
<path d="M12.9774 12.3105C13.0373 12.3405 13.0972 12.3704 13.1589 12.4013C13.1589 12.4612 13.1589 12.5211 13.1589 12.5828C13.0709 12.6558 12.9829 12.7288 12.8923 12.804C12.5968 13.0099 12.5968 13.0099 12.5236 13.3088C12.3655 13.4775 12.3655 13.4775 12.172 13.6491C12.0769 13.7354 12.0769 13.7354 11.9798 13.8235C11.8896 13.8832 11.8896 13.8832 11.7976 13.944C11.7078 13.9141 11.618 13.8841 11.5254 13.8533C11.5914 13.8003 11.5914 13.8003 11.6587 13.7462C12.1709 13.3187 12.5756 12.8417 12.9774 12.3105Z" fill="#D1F4FE"/>
<path d="M6.62471 9.67871C6.80621 9.84319 6.80621 9.84319 6.9877 10.0417C6.9877 10.1315 6.9877 10.2214 6.9877 10.3139C7.0739 10.5091 7.0739 10.5091 7.1692 10.6769C6.89696 10.6769 6.89696 10.6769 6.73141 10.5181C6.67561 10.4508 6.61981 10.3834 6.56232 10.3139C6.50582 10.2466 6.44932 10.1792 6.39111 10.1098C6.34841 10.0574 6.30571 10.005 6.26172 9.95096C6.38151 9.92101 6.50129 9.89106 6.62471 9.86021C6.62471 9.80031 6.62471 9.74042 6.62471 9.67871Z" fill="white"/>
<path d="M3.53953 9.2251C3.59943 9.2251 3.65932 9.2251 3.72103 9.2251C3.66583 9.60044 3.56244 9.90213 3.35804 10.2233C3.11415 10.3027 3.11415 10.3027 2.9043 10.3141C2.93424 10.2242 2.96419 10.1344 2.99505 10.0418C3.05494 10.0418 3.11483 10.0418 3.17654 10.0418C3.15595 9.98755 3.13536 9.93327 3.11415 9.87735C3.10479 9.81184 3.09544 9.74633 3.08579 9.67884C3.2049 9.52003 3.2049 9.52003 3.35804 9.40659C3.41793 9.40659 3.47783 9.40659 3.53953 9.40659C3.53953 9.3467 3.53953 9.28681 3.53953 9.2251Z" fill="white"/>
<path d="M14.4297 10.2236C14.4895 10.2835 14.5494 10.3434 14.6112 10.4051C14.5389 10.4743 14.5389 10.4743 14.4651 10.5448C14.0986 10.9019 13.793 11.2423 13.5222 11.6756C13.4922 11.6756 13.4623 11.6756 13.4314 11.6756C13.4031 11.4771 13.4031 11.4771 13.4314 11.2219C13.6316 10.9828 13.802 10.8085 14.0837 10.6717C14.2961 10.5618 14.3426 10.4413 14.4297 10.2236Z" fill="#AAD7EC"/>
<path d="M12.3414 9.31592C12.5367 9.60885 12.5411 9.70468 12.5229 10.0419C12.433 10.0868 12.433 10.0868 12.3414 10.1327C12.2815 10.1027 12.2216 10.0728 12.1599 10.0419C12.1299 10.1317 12.1 10.2216 12.0691 10.3141C11.949 9.95385 12.0359 9.75908 12.1599 9.40667C12.2198 9.37672 12.2797 9.34677 12.3414 9.31592Z" fill="white"/>
<path d="M14.1566 3.32666C14.2165 3.38655 14.2764 3.44645 14.3381 3.50816C14.2133 3.73503 14.2133 3.73503 14.0659 3.9619C14.006 3.9619 13.9461 3.9619 13.8844 3.9619C13.902 4.01384 13.9197 4.06578 13.9379 4.11929C13.9824 4.3654 13.9399 4.48188 13.8447 4.71057C13.8186 4.77468 13.7925 4.83878 13.7656 4.90483C13.7449 4.95302 13.7242 5.00122 13.7029 5.05088C13.6729 5.05088 13.643 5.05088 13.6121 5.05088C13.555 4.37989 13.7876 3.88012 14.1566 3.32666Z" fill="#E3C5B2"/>
<path d="M1.03165 13.5186C1.08031 13.5391 1.12897 13.5597 1.17911 13.5809C0.901317 13.8191 0.840465 13.8532 0.453127 13.8532C0.453127 14.1527 0.453127 14.4521 0.453127 14.7607C0.271631 14.5792 0.271631 14.5792 0.253906 14.3828C0.256012 14.3091 0.258118 14.2354 0.260287 14.1595C0.261925 14.0853 0.263562 14.0111 0.26525 13.9347C0.267355 13.8779 0.269461 13.821 0.271631 13.7624C0.763067 13.4832 0.763067 13.4832 1.03165 13.5186Z" fill="white"/>
<path d="M5.08203 8.31787C5.29166 8.37776 5.50129 8.43766 5.71727 8.49937C5.74722 8.6491 5.77716 8.79884 5.80802 8.95311C5.71818 8.98306 5.62834 9.013 5.53577 9.04386C5.29189 8.89072 5.29189 8.89072 5.08203 8.68086C5.08203 8.56108 5.08203 8.44129 5.08203 8.31787Z" fill="white"/>
<path d="M3.35775 11.2217C3.41764 11.2516 3.47754 11.2816 3.53925 11.3124C3.39759 11.6601 3.18405 11.8825 2.90401 12.1292C2.70762 12.1877 2.70762 12.1877 2.54102 12.2199C2.62581 12.1044 2.71096 11.9891 2.79625 11.8739C2.84362 11.8097 2.891 11.7455 2.93981 11.6793C3.07019 11.5134 3.20513 11.367 3.35775 11.2217Z" fill="#9ECBE3"/>
<path d="M12.2496 10.6772C12.2795 10.6772 12.3095 10.6772 12.3403 10.6772C12.3564 11.0882 12.3486 11.3972 12.1588 11.7662C12.0989 11.8261 12.039 11.886 11.9773 11.9477C11.8875 11.9178 11.7976 11.8878 11.7051 11.857C11.7526 11.7634 11.7526 11.7634 11.8011 11.668C11.8424 11.5863 11.8837 11.5045 11.9263 11.4202C11.9673 11.3392 12.0084 11.2581 12.0507 11.1746C12.1664 10.9459 12.1664 10.9459 12.2496 10.6772Z" fill="#9CC6DD"/>
<path d="M4.37252 10.1669C4.45394 10.1949 4.45394 10.1949 4.537 10.2236C4.48121 10.2663 4.42541 10.309 4.36792 10.353C4.29457 10.4095 4.22122 10.466 4.14565 10.5242C4.07301 10.58 4.00036 10.6358 3.92552 10.6933C3.75412 10.8315 3.59951 10.9718 3.44803 11.1311C3.41808 11.0412 3.38813 10.9514 3.35728 10.8588C3.29738 10.8289 3.23749 10.7989 3.17578 10.7681C3.23568 10.7381 3.29557 10.7082 3.35728 10.6773C3.44712 10.7073 3.53696 10.7372 3.62952 10.7681C3.65947 10.6782 3.68942 10.5884 3.72027 10.4958C3.78016 10.4958 3.84006 10.4958 3.90177 10.4958C3.90177 10.4359 3.90177 10.376 3.90177 10.3143C4.17401 10.1328 4.17401 10.1328 4.37252 10.1669Z" fill="white"/>
<path d="M9.25586 14.0347C9.43361 14.0474 9.61132 14.0608 9.78901 14.0744C9.93745 14.0854 9.93745 14.0854 10.0889 14.0967C10.3448 14.1254 10.3448 14.1254 10.5263 14.2162C10.5263 14.1563 10.5263 14.0964 10.5263 14.0347C10.7659 14.0347 11.0055 14.0347 11.2523 14.0347C10.6421 14.3398 10.1457 14.4022 9.47139 14.2162C9.40026 14.1862 9.32914 14.1563 9.25586 14.1254C9.25586 14.0955 9.25586 14.0655 9.25586 14.0347Z" fill="#B0D9ED"/>
<path d="M1.4515 12.6738C1.4515 12.9806 1.37214 13.2033 1.27 13.4906C1.06037 13.5205 0.850746 13.5505 0.634766 13.5813C0.760169 13.29 0.900133 13.1231 1.14522 12.9234C1.20254 12.8761 1.25987 12.8289 1.31892 12.7802C1.38455 12.7275 1.38455 12.7275 1.4515 12.6738Z" fill="white"/>
<path d="M5.80878 9.40674C5.95851 9.55647 6.10825 9.70621 6.26252 9.86048C6.23257 9.95032 6.20263 10.0402 6.17177 10.1327C6.02204 10.1327 5.8723 10.1327 5.71803 10.1327C5.71803 10.1028 5.71803 10.0728 5.71803 10.042C5.41856 10.042 5.11909 10.042 4.81055 10.042C5.11126 9.8415 5.20481 9.84008 5.55355 9.84914C5.63532 9.85077 5.71709 9.85241 5.80133 9.8541C5.86368 9.8562 5.92603 9.85831 5.99027 9.86048C5.90043 9.74069 5.81059 9.6209 5.71803 9.49749C5.74798 9.46754 5.77792 9.43759 5.80878 9.40674Z" fill="#99B7C4"/>
<path d="M8.4392 8.68066C8.4991 8.68066 8.55899 8.68066 8.6207 8.68066C8.55264 8.85649 8.55264 8.85649 8.4392 9.04366C8.25771 9.10605 8.25771 9.10605 8.07621 9.13441C7.98637 9.17933 7.98637 9.17933 7.89472 9.22515C7.72467 9.23154 7.55441 9.2328 7.38426 9.23083C7.29325 9.23001 7.20224 9.22919 7.10847 9.22834C7.03851 9.22729 6.96856 9.22624 6.89648 9.22515C6.89648 9.19521 6.89648 9.16526 6.89648 9.13441C7.00025 9.10925 7.10401 9.0841 7.21091 9.05819C7.34621 9.025 7.48151 8.9918 7.6168 8.95858C7.68529 8.94203 7.75378 8.92548 7.82435 8.90842C8.15905 8.8496 8.15905 8.8496 8.4392 8.68066Z" fill="#F2CBD5"/>
<path d="M12.5241 6.23047C12.6139 6.26042 12.7037 6.29036 12.7963 6.32122C12.7431 6.87953 12.7431 6.87953 12.7056 7.0472C12.6157 7.09212 12.6157 7.09212 12.5241 7.13795C12.5241 7.01816 12.5241 6.89838 12.5241 6.77496C12.3743 6.80491 12.2246 6.83485 12.0703 6.86571C12.1876 6.60395 12.3116 6.42356 12.5241 6.23047Z" fill="#EAC2B2"/>
<path d="M3.53968 8.77148C3.56588 8.82951 3.59209 8.88753 3.61908 8.94731C3.70559 9.14828 3.70559 9.14828 3.90267 9.22523C3.84278 9.28512 3.78288 9.34501 3.72118 9.40672C3.72118 9.34683 3.72118 9.28693 3.72118 9.22523C3.66128 9.22523 3.60139 9.22523 3.53968 9.22523C3.53968 9.28512 3.53968 9.34501 3.53968 9.40672C3.47978 9.40672 3.41989 9.40672 3.35818 9.40672C3.32824 9.49656 3.29829 9.5864 3.26743 9.67897C3.20754 9.67897 3.14765 9.67897 3.08594 9.67897C3.20708 9.35283 3.35457 9.06597 3.53968 8.77148Z" fill="white"/>
<path d="M11.888 7.50098C11.888 7.87648 11.7323 7.9737 11.4796 8.24398C11.4038 8.32575 11.328 8.40752 11.2499 8.49176C11.1909 8.55411 11.132 8.61646 11.0712 8.6807C11.0413 8.59086 11.0113 8.50102 10.9805 8.40846C11.0703 8.37851 11.1602 8.34857 11.2527 8.31771C11.2789 8.24846 11.3051 8.17921 11.3321 8.10786C11.4582 7.80656 11.6252 7.68764 11.888 7.50098Z" fill="#FDD2B8"/>
<path d="M15.5185 5.86768C15.5185 5.95752 15.5185 6.04736 15.5185 6.13992C15.3697 6.17642 15.3697 6.17642 15.2179 6.21365C14.9076 6.31358 14.8129 6.35996 14.611 6.59366C14.5511 6.59366 14.4913 6.59366 14.4295 6.59366C14.3996 6.6835 14.3696 6.77334 14.3388 6.86591C14.3088 6.77607 14.2789 6.68622 14.248 6.59366C14.321 6.53751 14.394 6.48136 14.4692 6.42351C14.7053 6.25411 14.7053 6.25411 14.7925 6.04917C15.2664 5.86768 15.2664 5.86768 15.5185 5.86768Z" fill="#DCDECD"/>
<path d="M14.2478 3.32666C14.4274 3.37158 14.4274 3.37158 14.6108 3.41741C14.6407 3.5372 14.6706 3.65698 14.7015 3.7804C14.5518 3.81035 14.402 3.8403 14.2478 3.87115C14.157 3.5989 14.157 3.5989 14.2478 3.32666ZM13.8848 3.9619C13.9447 3.9619 14.0046 3.9619 14.0663 3.9619C14.0363 4.05174 14.0064 4.14158 13.9755 4.23414C13.9456 4.1443 13.9156 4.05446 13.8848 3.9619Z" fill="#F1CCC4"/>
<path d="M6.80469 10.042C7.11126 10.1734 7.31738 10.3291 7.53067 10.5865C7.59873 10.836 7.59873 10.836 7.62142 11.0402C7.56153 11.0103 7.50163 10.9803 7.43993 10.9495C7.43993 10.8896 7.43993 10.8297 7.43993 10.768C7.38565 10.7493 7.33137 10.7305 7.27544 10.7113C7.00341 10.5403 6.9305 10.3314 6.80469 10.042Z" fill="white"/>
<path d="M2.99566 9.67871C3.05556 9.7985 3.11545 9.91829 3.17716 10.0417C3.11726 10.0417 3.05737 10.0417 2.99566 10.0417C3.02561 10.1615 3.05556 10.2813 3.08641 10.4047C2.96662 10.4346 2.84683 10.4646 2.72342 10.4954C2.71219 10.5535 2.70096 10.6115 2.68939 10.6713C2.67067 10.733 2.65195 10.7948 2.63267 10.8584C2.54283 10.9034 2.54283 10.9034 2.45117 10.9492C2.58654 10.498 2.77828 10.0945 2.99566 9.67871Z" fill="white"/>
<path d="M4.35742 9.76953C4.74673 9.76953 5.13604 9.76953 5.53715 9.76953C5.53715 9.79948 5.53715 9.82943 5.53715 9.86028C5.39172 9.90612 5.24611 9.95138 5.10042 9.9964C4.97882 10.0343 4.97882 10.0343 4.85476 10.073C4.62967 10.1325 4.62967 10.1325 4.35742 10.1325C4.35742 10.0127 4.35742 9.89295 4.35742 9.76953Z" fill="white"/>
<path d="M5.44459 8.95312C5.56943 9.07016 5.69031 9.19151 5.80759 9.31612C5.80759 9.37601 5.80759 9.43591 5.80759 9.49761C5.71564 9.50586 5.71564 9.50586 5.62183 9.51428C5.54088 9.52188 5.45993 9.52948 5.37653 9.53732C5.29652 9.54469 5.2165 9.55206 5.13406 9.55965C4.92792 9.58495 4.73689 9.62356 4.53711 9.67911C4.53711 9.61922 4.53711 9.55932 4.53711 9.49761C4.82882 9.35176 5.12118 9.40165 5.44459 9.40687C5.44459 9.25713 5.44459 9.1074 5.44459 8.95312Z" fill="#E7CEAE"/>
<path d="M4.44712 8.49902C5.02791 8.5437 5.02791 8.5437 5.30356 8.77694C5.37375 8.86397 5.37375 8.86397 5.44535 8.95276C5.17311 8.95276 5.17311 8.95276 5.00863 8.86202C4.75287 8.7451 4.54351 8.75864 4.26562 8.77127C4.32552 8.68143 4.38541 8.59159 4.44712 8.49902Z" fill="#DEC9AB"/>
<path d="M5.7177 8.68066C5.89353 8.7544 5.89353 8.7544 6.08069 8.86216C6.11064 8.952 6.14059 9.04184 6.17144 9.13441C6.11155 9.13441 6.05165 9.13441 5.98995 9.13441C5.96 9.22425 5.93005 9.31409 5.8992 9.40665C5.80936 9.34676 5.71952 9.28686 5.62695 9.22515C5.6569 9.04547 5.68685 8.86579 5.7177 8.68066Z" fill="white"/>
<path d="M15.4281 4.59717C15.488 4.59717 15.5479 4.59717 15.6096 4.59717C15.672 4.89777 15.672 4.89777 15.7003 5.23241C15.5699 5.40823 15.5699 5.40823 15.4281 5.50465C15.3038 5.25609 15.3259 5.05355 15.3373 4.77866C15.3673 4.71877 15.3972 4.65888 15.4281 4.59717Z" fill="white"/>
<path d="M12.4332 12.6738C12.523 12.7038 12.6128 12.7337 12.7054 12.7646C12.4658 13.0341 12.2263 13.3036 11.9794 13.5813C11.9495 13.5214 11.9195 13.4615 11.8887 13.3998C12.0684 13.1602 12.248 12.9207 12.4332 12.6738Z" fill="#ABD7EB"/>
<path d="M9.70989 12.3105C9.94946 12.3105 10.189 12.3105 10.4359 12.3105C10.4359 12.4004 10.4359 12.4902 10.4359 12.5828C10.1664 12.5828 9.89683 12.5828 9.61914 12.5828C9.64909 12.493 9.67903 12.4031 9.70989 12.3105Z" fill="white"/>
<path d="M9.98141 7.86426C9.98141 7.92415 9.98141 7.98405 9.98141 8.04575C9.8187 8.20244 9.8187 8.20244 9.6014 8.37472C9.53087 8.43204 9.46033 8.48936 9.38765 8.54841C9.137 8.69745 8.99727 8.70846 8.71094 8.68099C8.76311 8.64204 8.81528 8.60308 8.86904 8.56295C9.00065 8.4639 9.13164 8.364 9.26181 8.26305C9.32334 8.21568 9.38487 8.1683 9.44827 8.11949C9.54127 8.04737 9.54127 8.04737 9.63614 7.97379C9.79992 7.86426 9.79992 7.86426 9.98141 7.86426Z" fill="#EFC9D3"/>
<path d="M10.8899 6.7749C10.9498 6.80485 11.0097 6.8348 11.0714 6.86565C11.0415 6.92554 11.0115 6.98544 10.9807 7.04715C10.9208 7.04715 10.8609 7.04715 10.7992 7.04715C10.7786 7.11453 10.758 7.18191 10.7368 7.25133C10.5955 7.5473 10.4284 7.67594 10.1639 7.86388C10.104 7.83393 10.0441 7.80399 9.98242 7.77313C10.0272 7.72938 10.072 7.68563 10.1182 7.64056C10.1763 7.58324 10.2345 7.52592 10.2944 7.46686C10.3523 7.41001 10.4102 7.35315 10.4698 7.29458C10.6248 7.14541 10.6248 7.14541 10.7084 6.9564C10.7683 6.9564 10.8282 6.9564 10.8899 6.9564C10.8899 6.8965 10.8899 6.83661 10.8899 6.7749Z" fill="#F0CCD4"/>
<path d="M6.35156 9.2251C6.62108 9.2251 6.89061 9.2251 7.1683 9.2251C7.03354 9.35986 7.03354 9.35986 6.89605 9.49734C6.86611 9.58718 6.83616 9.67702 6.8053 9.76959C6.65215 9.62027 6.50093 9.46895 6.35156 9.31585C6.35156 9.2859 6.35156 9.25595 6.35156 9.2251Z" fill="#E6BEC7"/>
<path d="M13.7028 3.96191C13.6729 4.26138 13.6429 4.56085 13.6121 4.8694C13.3614 4.61873 13.3781 4.39686 13.3398 4.05266C13.5213 3.96191 13.5213 3.96191 13.7028 3.96191Z" fill="white"/>
<path d="M13.7928 2.60059C13.8228 2.66048 13.8527 2.72037 13.8836 2.78208C14.213 2.78208 14.5424 2.78208 14.8818 2.78208C14.8818 2.84198 14.8818 2.90187 14.8818 2.96358C14.8195 2.96147 14.7571 2.95937 14.6929 2.9572C14.6111 2.95556 14.5293 2.95392 14.4451 2.95224C14.364 2.95013 14.2829 2.94802 14.1994 2.94585C13.9513 2.94698 13.9513 2.94698 13.7021 3.14508C13.6721 3.02529 13.6422 2.9055 13.6113 2.78208C13.6712 2.78208 13.7311 2.78208 13.7928 2.78208C13.7928 2.72219 13.7928 2.66229 13.7928 2.60059Z" fill="#D0A6B1"/>
<path d="M1.45164 13.3086C1.48159 13.4284 1.51154 13.5482 1.54239 13.6716C1.4825 13.6716 1.4226 13.6716 1.3609 13.6716C1.301 13.7914 1.24111 13.9112 1.1794 14.0346C1.11951 13.9747 1.05961 13.9148 0.997903 13.8531C0.938009 13.8231 0.878115 13.7932 0.816406 13.7623C1.02603 13.6126 1.23566 13.4629 1.45164 13.3086Z" fill="#97C1D9"/>
<path d="M1.17911 12.9457C0.969256 13.1725 0.969256 13.1725 0.72537 13.3994C0.635529 13.3994 0.545688 13.3994 0.453125 13.3994C0.616671 12.9438 0.694113 12.8002 1.17911 12.9457Z" fill="#E1B2BF"/>
<path d="M8.34947 12.1289C8.5657 12.2193 8.5657 12.2193 8.81455 12.3501C8.93843 12.4145 8.93843 12.4145 9.06482 12.4802C9.12822 12.514 9.19162 12.5478 9.25695 12.5826C9.19705 12.6425 9.13716 12.7024 9.07545 12.7641C8.747 12.6074 8.4515 12.4487 8.16797 12.2197C8.22786 12.1897 8.28776 12.1598 8.34947 12.1289Z" fill="#A1C8E0"/>
<path d="M12.8863 3.23584C13.0195 3.50235 12.9559 3.67762 12.8863 3.96183C12.7502 4.12064 12.7502 4.12064 12.614 4.23407C12.5841 4.29396 12.5541 4.35386 12.5233 4.41557C12.4634 4.38562 12.4035 4.35567 12.3418 4.32482C12.5215 3.96546 12.7012 3.60609 12.8863 3.23584Z" fill="#F3D4DC"/>
<path d="M11.6166 11.9478C11.6765 11.9777 11.7364 12.0076 11.7981 12.0385C11.7981 12.0984 11.7981 12.1583 11.7981 12.22C11.7382 12.22 11.6783 12.22 11.6166 12.22C11.6166 12.2799 11.6166 12.3398 11.6166 12.4015C11.4578 12.5546 11.4578 12.5546 11.2536 12.6737C11.0494 12.6454 11.0494 12.6454 10.8906 12.583C10.9767 12.5287 11.0628 12.4744 11.1515 12.4185C11.4478 12.2367 11.4478 12.2367 11.6166 11.9478Z" fill="#9BC0D8"/>
<path d="M6.98633 10.042C7.25585 10.0869 7.25585 10.0869 7.53082 10.1327C7.56076 10.3124 7.59071 10.4921 7.62157 10.6772C7.51543 10.5887 7.40961 10.4998 7.30395 10.4107C7.24499 10.3612 7.18603 10.3117 7.12529 10.2607C7.07943 10.2185 7.03357 10.1762 6.98633 10.1327C6.98633 10.1028 6.98633 10.0728 6.98633 10.042Z" fill="#DDC0AB"/>
<path d="M12.7049 8.8623C12.8864 9.20261 12.8864 9.20261 12.8864 9.40679C12.8265 9.40679 12.7666 9.40679 12.7049 9.40679C12.7049 9.61642 12.7049 9.82605 12.7049 10.042C12.645 10.042 12.5851 10.042 12.5234 10.042C12.5364 9.91344 12.5497 9.78489 12.5631 9.65635C12.5705 9.58476 12.5779 9.51317 12.5855 9.43941C12.612 9.2413 12.6524 9.05493 12.7049 8.8623Z" fill="#A5BCC5"/>
<path d="M8.62109 12.2197C8.83072 12.2497 9.04035 12.2796 9.25633 12.3105C9.25633 12.3704 9.25633 12.4303 9.25633 12.492C9.37612 12.5219 9.49591 12.5519 9.61932 12.5827C9.47753 12.6508 9.47753 12.6508 9.25633 12.6735C9.0292 12.5708 8.83253 12.4447 8.62109 12.3105C8.62109 12.2805 8.62109 12.2506 8.62109 12.2197Z" fill="white"/>
<path d="M6.62471 9.67871C6.7445 9.7985 6.86429 9.91829 6.9877 10.0417C6.95776 10.1016 6.92781 10.1615 6.89696 10.2232C6.83706 10.2232 6.77717 10.2232 6.71546 10.2232C6.71546 10.1633 6.71546 10.1034 6.71546 10.0417C6.56573 10.0118 6.41599 9.98181 6.26172 9.95096C6.38151 9.92101 6.50129 9.89106 6.62471 9.86021C6.62471 9.80031 6.62471 9.74042 6.62471 9.67871Z" fill="white"/>
<path d="M15.2458 5.41406C15.3819 5.53884 15.3819 5.53884 15.5181 5.68631C15.5181 5.7462 15.5181 5.80609 15.5181 5.8678C15.3536 5.96422 15.3536 5.96422 15.1551 6.0493C15.0652 6.01935 14.9754 5.98941 14.8828 5.95855C14.9427 5.95855 15.0026 5.95855 15.0643 5.95855C15.1242 5.77887 15.1841 5.59919 15.2458 5.41406Z" fill="#EFD6BC"/>
<path d="M15.4265 4.14307C15.608 4.41531 15.608 4.41531 15.608 4.59681C15.5481 4.59681 15.4883 4.59681 15.4265 4.59681C15.3966 4.77649 15.3666 4.95617 15.3358 5.1413C15.2759 5.05146 15.216 4.96162 15.1543 4.86905C15.2229 4.61064 15.3071 4.38194 15.4265 4.14307Z" fill="white"/>
<path d="M7.98633 11.6753C8.19596 11.7052 8.40559 11.7352 8.62157 11.766C8.62157 11.9158 8.62157 12.0655 8.62157 12.2198C8.316 12.0933 8.1691 11.9494 7.98633 11.6753Z" fill="white"/>
<path d="M7.71484 11.5845C8.02041 11.7109 8.16731 11.8548 8.35008 12.129C8.26024 12.129 8.1704 12.129 8.07784 12.129C8.07784 12.0691 8.07784 12.0092 8.07784 11.9475C7.95805 11.9175 7.83826 11.8876 7.71484 11.8567C7.71484 11.7669 7.71484 11.677 7.71484 11.5845Z" fill="#9BC0D6"/>
<path d="M15.5185 5.9585C15.7294 6.21741 15.8589 6.46131 15.9722 6.77523C15.8824 6.77523 15.7925 6.77523 15.7 6.77523C15.67 6.68539 15.6401 6.59555 15.6092 6.50299C15.5493 6.44309 15.4894 6.3832 15.4277 6.32149C15.4618 6.12865 15.4618 6.12865 15.5185 5.9585Z" fill="#A7C7D7"/>
<path d="M15.0641 4.05273C15.1839 4.08268 15.3037 4.11263 15.4271 4.14348C15.3672 4.32316 15.3073 4.50285 15.2456 4.68797C15.0641 4.50648 15.0641 4.50648 15.0527 4.26826C15.0565 4.19714 15.0602 4.12601 15.0641 4.05273Z" fill="white"/>
<path d="M14.3906 2.86719C14.5001 2.87 14.5001 2.87 14.6118 2.87286C14.5819 2.93275 14.5519 2.99265 14.5211 3.05436C14.4612 3.02441 14.4013 2.99446 14.3396 2.96361C14.3096 3.0834 14.2797 3.20318 14.2488 3.3266C14.159 3.3266 14.0691 3.3266 13.9766 3.3266C14.0786 2.8748 14.0786 2.8748 14.3906 2.86719Z" fill="white"/>
<path d="M8.07617 11.3125C8.34569 11.4922 8.34569 11.4922 8.62066 11.6755C8.59071 11.7354 8.56077 11.7953 8.52991 11.857C8.41013 11.827 8.29034 11.7971 8.16692 11.7662C8.13697 11.6165 8.10703 11.4668 8.07617 11.3125Z" fill="white"/>
<path d="M7.5332 10.6772C7.9756 11.0062 7.9756 11.0062 8.07769 11.3125C7.90754 11.3011 7.90754 11.3011 7.7147 11.2217C7.60126 10.9438 7.60126 10.9438 7.5332 10.6772Z" fill="white"/>
<path d="M5.71684 9.49743C5.71684 9.52738 5.71684 9.55732 5.71684 9.58818C5.56242 9.60783 5.56242 9.60783 5.40489 9.62788C5.09904 9.64369 5.09904 9.64369 4.99085 9.76967C4.83965 9.77336 4.68831 9.77355 4.53711 9.76967C4.88045 9.41141 5.25595 9.47084 5.71684 9.49743Z" fill="white"/>
<path d="M13.3394 7.95459C13.3394 8.04443 13.3394 8.13427 13.3394 8.22683C13.2496 8.25678 13.1597 8.28673 13.0672 8.31758C12.9575 8.49909 12.9575 8.49909 12.8857 8.68058C12.8557 8.56079 12.8258 8.441 12.7949 8.31758C12.9147 8.28764 13.0345 8.25769 13.1579 8.22683C13.1579 8.16694 13.1579 8.10705 13.1579 8.04534C13.2178 8.01539 13.2777 7.98544 13.3394 7.95459Z" fill="#D9CCB6"/>
<path d="M3.9919 10.4956C4.05179 10.4956 4.11169 10.4956 4.1734 10.4956C4.14345 10.6154 4.1135 10.7352 4.08265 10.8586C3.93291 10.8885 3.78318 10.9185 3.62891 10.9493C3.74512 10.7944 3.86646 10.6432 3.9919 10.4956Z" fill="#8FBACB"/>
<path d="M3.99295 9.58838C4.11274 9.67822 4.23252 9.76806 4.35594 9.86062C4.17626 9.95046 4.17626 9.95046 3.99295 10.0421C3.90311 9.98223 3.81327 9.92233 3.7207 9.86062C3.81145 9.67913 3.81145 9.67913 3.99295 9.58838Z" fill="#E7CBA0"/>
<path d="M3.8104 8.68066C3.90024 8.71061 3.99008 8.74056 4.08265 8.77141C4.02275 8.8912 3.96286 9.01099 3.90115 9.13441C3.84126 9.13441 3.78136 9.13441 3.71965 9.13441C3.68971 9.01462 3.65976 8.89483 3.62891 8.77141C3.6888 8.74147 3.74869 8.71152 3.8104 8.68066Z" fill="white"/>
<path d="M14.8828 4.05273C15.1156 4.28555 15.1134 4.459 15.1551 4.77872C15.0652 4.77872 14.9754 4.77872 14.8828 4.77872C14.8828 4.53914 14.8828 4.29957 14.8828 4.05273Z" fill="#D9BCAD"/>
<path d="M13.2499 4.05273C13.3097 4.11263 13.3696 4.17252 13.4314 4.23423C13.4017 4.47161 13.3569 4.65537 13.2499 4.86947C13.19 4.86947 13.1301 4.86947 13.0684 4.86947C13.1283 4.59995 13.1881 4.33042 13.2499 4.05273Z" fill="white"/>
<path d="M14.1579 3.32666C14.2178 3.38655 14.2777 3.44645 14.3394 3.50816C14.1012 3.95055 14.1012 3.95055 13.7949 4.05265C13.897 3.78295 13.9966 3.56856 14.1579 3.32666Z" fill="#D2B2AE"/>
</svg>
