<svg width="16" height="16" viewBox="0 0 16 16" fill="none" xmlns="http://www.w3.org/2000/svg">
<path d="M15.9096 0.783387C15.9096 0.93254 15.9096 1.08169 15.9096 1.23536C15.8538 1.24865 15.798 1.26193 15.7405 1.27562C14.9033 1.49734 14.3093 1.8982 13.7161 2.52138C13.4999 2.74243 13.265 2.93834 13.0297 3.13861C12.8138 3.3348 12.6216 3.54652 12.4237 3.76079C11.6186 4.56836 10.6293 4.94096 9.56076 5.27831C8.21248 5.71168 7.09102 6.44532 5.9661 7.29186C5.8815 7.35525 5.79691 7.41864 5.70975 7.48395C4.79445 8.19486 3.95911 9.00934 3.15713 9.84412C2.98305 10.0037 2.98305 10.0037 2.80226 10.0037C2.78397 10.0541 2.76567 10.1044 2.74682 10.1563C2.57336 10.4455 2.32845 10.6191 2.06215 10.8173C2.01222 10.8557 1.96228 10.8942 1.91084 10.9338C0.990371 11.6308 0.990371 11.6308 0.542373 11.6308C0.542373 12.3169 0.542373 13.003 0.542373 13.7099C0.697119 13.641 0.851864 13.572 1.0113 13.5009C1.14187 13.4427 1.14187 13.4427 1.27507 13.3833C1.53899 13.2622 1.53899 13.2622 1.78425 13.1072C1.9887 12.9868 1.9887 12.9868 2.16949 12.9868C2.16949 12.9271 2.16949 12.8675 2.16949 12.806C2.35822 12.642 2.54735 12.4886 2.74576 12.3371C2.80379 12.2925 2.86182 12.2479 2.92161 12.202C3.03869 12.1124 3.15601 12.0232 3.27357 11.9343C3.40886 11.8315 3.54255 11.7267 3.67585 11.6213C4.48951 11.0049 5.47789 10.5906 6.50847 10.7269C7.19776 10.8349 7.87254 10.9759 8.54802 11.1506C9.56646 11.3894 10.6695 11.4062 11.5992 10.8794C11.7242 10.8008 11.8477 10.7197 11.9689 10.6354C12.113 10.5461 12.113 10.5461 12.2938 10.5461C12.318 10.4883 12.3423 10.4305 12.3672 10.371C12.4746 10.1845 12.4746 10.1845 12.7458 10.0941C12.7707 10.0437 12.7956 9.99321 12.8213 9.94123C12.9718 9.64283 13.2 9.42835 13.435 9.19582C13.4838 9.14753 13.5326 9.09925 13.5829 9.0495C14.2855 8.36805 14.9061 8.01503 15.9096 8.01503C15.9096 10.4015 15.9096 12.7879 15.9096 15.2467C10.6594 15.2467 5.40927 15.2467 0 15.2467C0 10.5036 0 5.76056 0 0.873783C0.149153 0.873783 0.298305 0.873783 0.451977 0.873783C0.451977 4.30429 0.451977 7.7348 0.451977 11.2693C1.12363 10.8215 1.66327 10.4583 2.23623 9.92322C2.4204 9.75145 2.60882 9.58859 2.80226 9.42745C3.08101 9.20437 3.08101 9.20437 3.25424 8.91898C3.3139 8.91898 3.37356 8.91898 3.43503 8.91898C3.45589 8.86794 3.47674 8.8169 3.49823 8.76432C3.96697 7.93945 5.03335 7.29938 5.78531 6.74949C5.84139 6.70831 5.89747 6.66713 5.95524 6.62471C7.18353 5.73054 8.40028 5.12045 9.83616 4.6252C11.2153 4.14108 12.003 3.43819 13.0177 2.40578C14.7091 0.693348 14.7091 0.693348 15.9096 0.783387Z" fill="#FA6D9C"/>
<path d="M15.9102 0.783203C15.94 0.783203 15.9699 0.783203 16.0006 0.783203C16.0006 5.55608 16.0006 10.329 16.0006 15.2465C15.9708 15.2465 15.9409 15.2465 15.9102 15.2465C15.9102 12.86 15.9102 10.4736 15.9102 8.01484C14.4113 8.36074 13.4884 9.05791 12.5712 10.2521C12.0838 10.8384 11.2477 11.2862 10.4865 11.3595C9.48892 11.4504 8.62882 11.2679 7.67044 11.0152C7.2827 10.9148 6.9076 10.8567 6.50907 10.8171C6.43519 10.8089 6.36132 10.8008 6.2852 10.7924C4.83725 10.7239 3.67029 11.6351 2.64466 12.5459C2.59106 12.5965 2.53746 12.6471 2.48223 12.6992C2.35088 12.8058 2.35088 12.8058 2.17009 12.8058C2.17009 12.8655 2.17009 12.9251 2.17009 12.9866C2.01801 13.074 1.86535 13.1605 1.71246 13.2465C1.62751 13.2947 1.54257 13.343 1.45505 13.3927C1.17574 13.529 1.17574 13.529 0.542969 13.7098C0.542969 13.0237 0.542969 12.3376 0.542969 11.6307C0.841274 11.4815 1.13958 11.3324 1.44692 11.1787C1.69724 11.0136 1.69724 11.0136 1.8989 10.8397C1.97406 10.7769 2.04922 10.7141 2.12666 10.6494C2.20065 10.5854 2.27464 10.5214 2.35088 10.4555C2.42021 10.3962 2.48954 10.3369 2.56098 10.2758C3.03695 9.85804 3.4826 9.41444 3.92715 8.96399C4.45906 8.42719 5.00246 7.93022 5.60512 7.47247C5.6554 7.43384 5.70568 7.39521 5.75748 7.35541C6.96332 6.43238 8.15154 5.67665 9.59192 5.18133C10.8362 4.75194 11.8177 4.30753 12.7248 3.34305C12.8498 3.21027 12.9785 3.08114 13.1079 2.95269C13.1676 2.95269 13.2273 2.95269 13.2887 2.95269C13.3186 2.8632 13.3484 2.77371 13.3791 2.68151C13.6028 2.4511 13.854 2.25211 14.1023 2.04874C14.1628 1.99852 14.2232 1.94829 14.2856 1.89655C14.7858 1.49936 15.2541 1.23518 15.9102 1.23518C15.9102 1.08603 15.9102 0.936875 15.9102 0.783203Z" fill="#FBBA8A"/>
<path d="M15.9102 0.783203C15.94 0.783203 15.9699 0.783203 16.0006 0.783203C16.0006 5.55608 16.0006 10.329 16.0006 15.2465C15.9708 15.2465 15.9409 15.2465 15.9102 15.2465C15.9102 11.3089 15.9102 7.37123 15.9102 3.31428C14.9986 3.58857 14.9986 3.58857 14.2831 4.04874C13.8496 4.39065 13.8496 4.39065 13.6334 4.48871C13.4215 4.6065 13.3859 4.72277 13.2887 4.9414C13.2021 5.05727 13.1116 5.17038 13.0175 5.28038C12.9709 5.33584 12.9243 5.39131 12.8763 5.44846C12.7464 5.57416 12.7464 5.57416 12.5656 5.57416C12.5413 5.63196 12.5171 5.68976 12.4921 5.7493C12.3848 5.93575 12.3848 5.93575 12.1136 6.02614C12.0688 6.11563 12.0688 6.11563 12.0232 6.20693C11.9784 6.29642 11.9784 6.29642 11.9328 6.38772C11.7986 6.43247 11.7986 6.43247 11.6616 6.47812C11.6318 6.56761 11.602 6.6571 11.5712 6.7493C11.4519 6.7493 11.3326 6.7493 11.2096 6.7493C11.1649 6.88354 11.1649 6.88354 11.1192 7.02049C10.8929 7.1063 10.8929 7.1063 10.6164 7.17303C10.5249 7.19576 10.4335 7.21848 10.3392 7.24189C10.2685 7.25832 10.1978 7.27475 10.1249 7.29168C10.1249 7.35134 10.1249 7.411 10.1249 7.47247C9.26764 7.70436 8.41022 7.93045 7.54297 8.12219C7.4409 8.14489 7.4409 8.14489 7.33678 8.16805C6.98841 8.24436 6.64099 8.30901 6.28873 8.36512C5.76573 8.46483 5.33568 8.74246 4.88195 9.00919C4.762 9.07058 4.64168 9.1313 4.52037 9.18998C4.52037 9.24964 4.52037 9.30931 4.52037 9.37077C4.4113 9.40713 4.4113 9.40713 4.30003 9.44422C4.18537 9.49736 4.18537 9.49736 4.06839 9.55157C4.02365 9.6858 4.02365 9.6858 3.978 9.82275C3.88291 9.87589 3.88291 9.87589 3.78591 9.9301C3.47793 10.1243 3.2914 10.3549 3.05851 10.6314C2.85829 10.8564 2.64007 11.0441 2.40773 11.2348C2.23874 11.3739 2.23874 11.3739 2.01754 11.6081C1.82993 11.7906 1.68679 11.8945 1.44692 11.9922C1.44692 12.0519 1.44692 12.1116 1.44692 12.173C0.848053 12.5346 0.848053 12.5346 0.542969 12.5346C0.542969 12.2363 0.542969 11.938 0.542969 11.6307C0.738731 11.5412 0.738731 11.5412 0.938449 11.4499C1.46979 11.1835 1.90276 10.8429 2.35088 10.4555C2.42021 10.3962 2.48954 10.3369 2.56098 10.2758C3.03695 9.85804 3.4826 9.41444 3.92715 8.96399C4.45906 8.42719 5.00246 7.93022 5.60512 7.47247C5.6554 7.43384 5.70568 7.39521 5.75748 7.35541C6.96332 6.43238 8.15154 5.67665 9.59192 5.18133C10.8362 4.75194 11.8177 4.30753 12.7248 3.34305C12.8498 3.21027 12.9785 3.08114 13.1079 2.95269C13.1676 2.95269 13.2273 2.95269 13.2887 2.95269C13.3186 2.8632 13.3484 2.77371 13.3791 2.68151C13.6028 2.4511 13.854 2.25211 14.1023 2.04874C14.1628 1.99852 14.2232 1.94829 14.2856 1.89655C14.7858 1.49936 15.2541 1.23518 15.9102 1.23518C15.9102 1.08603 15.9102 0.936875 15.9102 0.783203Z" fill="#FBD8AD"/>
<path d="M15.9096 0.783387C15.9096 0.93254 15.9096 1.08169 15.9096 1.23536C15.8538 1.24865 15.798 1.26193 15.7405 1.27562C14.9033 1.49734 14.3093 1.8982 13.7161 2.52138C13.4999 2.74243 13.265 2.93834 13.0297 3.13861C12.8138 3.3348 12.6216 3.54652 12.4237 3.76079C11.6186 4.56836 10.6293 4.94096 9.56076 5.27831C8.21248 5.71168 7.09102 6.44532 5.9661 7.29186C5.8815 7.35525 5.79691 7.41864 5.70975 7.48395C4.79445 8.19486 3.95911 9.00934 3.15713 9.84412C2.98305 10.0037 2.98305 10.0037 2.80226 10.0037C2.77429 10.0794 2.77429 10.0794 2.74576 10.1566C2.57598 10.4417 2.33986 10.615 2.0791 10.8116C2.03144 10.8493 1.98378 10.887 1.93468 10.9259C1.48565 11.2693 1.07016 11.4573 0.542373 11.7212C0.512542 12.7355 0.482712 13.7497 0.451977 14.7947C5.55299 14.7947 10.654 14.7947 15.9096 14.7947C15.9096 14.9438 15.9096 15.093 15.9096 15.2467C10.6594 15.2467 5.40927 15.2467 0 15.2467C0 10.5036 0 5.76056 0 0.873783C0.149153 0.873783 0.298305 0.873783 0.451977 0.873783C0.451977 4.30429 0.451977 7.7348 0.451977 11.2693C1.12363 10.8215 1.66327 10.4583 2.23623 9.92322C2.4204 9.75145 2.60882 9.58859 2.80226 9.42745C3.08101 9.20437 3.08101 9.20437 3.25424 8.91898C3.3139 8.91898 3.37356 8.91898 3.43503 8.91898C3.45589 8.86794 3.47674 8.8169 3.49823 8.76432C3.96697 7.93945 5.03335 7.29938 5.78531 6.74949C5.84139 6.70831 5.89747 6.66713 5.95524 6.62471C7.18353 5.73054 8.40028 5.12045 9.83616 4.6252C11.2153 4.14108 12.003 3.43819 13.0177 2.40578C14.7091 0.693348 14.7091 0.693348 15.9096 0.783387Z" fill="#363230"/>
<path d="M15.9088 8.01514C15.9088 10.2524 15.9088 12.4897 15.9088 14.7948C10.8078 14.7948 5.70677 14.7948 0.451172 14.7948C0.451172 13.7806 0.451172 12.7663 0.451172 11.7214C0.481002 11.7214 0.510833 11.7214 0.541567 11.7214C0.541567 12.3776 0.541567 13.0339 0.541567 13.7101C0.696313 13.6411 0.851059 13.5721 1.01049 13.501C1.09754 13.4622 1.18458 13.4234 1.27427 13.3834C1.53819 13.2624 1.53819 13.2624 1.78345 13.1073C1.9879 12.9869 1.9879 12.9869 2.16869 12.9869C2.16869 12.9272 2.16869 12.8676 2.16869 12.8061C2.35741 12.6421 2.54657 12.4887 2.74496 12.3372C2.80259 12.2928 2.86023 12.2484 2.91961 12.2027C3.09062 12.0716 3.26237 11.9417 3.43422 11.8117C3.51999 11.7458 3.60575 11.6798 3.69411 11.6119C4.1446 11.2782 4.50651 11.0907 5.06134 10.9982C4.83846 11.2598 4.61006 11.4162 4.30993 11.5745C3.90692 11.7905 3.58916 12.0466 3.25343 12.3541C3.12366 12.4673 2.99372 12.5803 2.8636 12.6931C2.68655 12.8475 2.51567 13.0015 2.34948 13.1677C2.06029 13.2942 1.77042 13.4174 1.4773 13.5346C1.3553 13.5879 1.3553 13.5879 1.23083 13.6423C1.11512 13.6905 1.11512 13.6905 0.997076 13.7397C0.735991 13.9191 0.735991 13.9191 0.722358 14.5236C5.70405 14.5236 10.6857 14.5236 15.8184 14.5236C15.7886 12.4653 15.7587 10.407 15.728 8.28632C14.8046 8.45728 14.8046 8.45728 14.1856 8.93039C13.8467 9.27501 13.8467 9.27501 13.5585 9.37107C13.4017 9.54902 13.2533 9.72759 13.1065 9.91344C13.0133 10.0309 12.9191 10.1477 12.8241 10.2637C12.7809 10.3176 12.7378 10.3714 12.6934 10.4269C12.5642 10.5462 12.5642 10.5462 12.293 10.5462C12.3664 10.3711 12.3664 10.3711 12.4738 10.1846C12.5633 10.1548 12.6528 10.125 12.745 10.0942C12.7699 10.0438 12.7948 9.99332 12.8205 9.94134C12.971 9.64294 13.1992 9.42847 13.4342 9.19593C13.483 9.14764 13.5318 9.09936 13.5821 9.04961C14.2847 8.36816 14.9053 8.01514 15.9088 8.01514Z" fill="#CF7793"/>
<path d="M0.089372 0.874023C0.208694 0.874023 0.328016 0.874023 0.450954 0.874023C0.450954 4.30453 0.450954 7.73504 0.450954 11.2695C0.510615 11.2993 0.570276 11.3292 0.631745 11.3599C0.482037 11.3944 0.331219 11.4244 0.179768 11.4503C0.089372 11.3599 0.089372 11.3599 0.0782491 11.185C0.0783324 11.1078 0.0784157 11.0305 0.0785016 10.9509C0.0783773 10.8626 0.078253 10.7742 0.078125 10.6832C0.07845 10.5855 0.078775 10.4878 0.0791098 10.3871C0.0790966 10.2848 0.0790834 10.1825 0.0790698 10.0771C0.0791331 9.73716 0.0798377 9.39723 0.0805443 9.05729C0.0807128 8.82232 0.0808416 8.58735 0.0809319 8.35239C0.0812424 7.79598 0.0819557 7.23957 0.0828618 6.68316C0.0838708 6.04986 0.0843689 5.41655 0.084823 4.78325C0.0857689 3.48017 0.0873597 2.1771 0.089372 0.874023Z" fill="#212222"/>
<path d="M0.270163 13.5293C0.450954 13.8005 0.450954 13.8005 0.450954 14.7948C5.55197 14.7948 10.653 14.7948 15.9086 14.7948C15.9086 14.8545 15.9086 14.9142 15.9086 14.9756C13.9081 14.9777 11.9075 14.9793 9.90703 14.9803C8.97821 14.9808 8.0494 14.9814 7.12058 14.9824C6.31127 14.9833 5.50196 14.9839 4.69265 14.9841C4.26391 14.9842 3.83516 14.9845 3.40641 14.9852C3.00324 14.9858 2.60007 14.986 2.19689 14.9858C2.04858 14.9859 1.90026 14.9861 1.75195 14.9864C1.55013 14.9868 1.34831 14.9867 1.14649 14.9865C0.976755 14.9866 0.976755 14.9866 0.803591 14.9867C0.54135 14.9756 0.54135 14.9756 0.360559 14.8852C0.360559 14.8256 0.360559 14.7659 0.360559 14.7044C0.300898 14.6746 0.241237 14.6448 0.179768 14.614C0.172392 14.2379 0.181351 13.8956 0.270163 13.5293Z" fill="#3E1524"/>
<path d="M13.1078 2.50098C13.1668 2.66341 13.1668 2.66341 13.1982 2.86256C13.0597 3.10585 12.849 3.29395 12.6558 3.49533C12.6075 3.55347 12.5591 3.61162 12.5093 3.67153C11.9561 4.29858 11.2336 4.60069 10.4863 4.94165C10.8641 4.13887 11.7231 3.62458 12.4185 3.11115C12.6698 2.92499 12.895 2.73153 13.1078 2.50098Z" fill="#302C21"/>
<path d="M12.1133 10.5459C12.2028 10.5906 12.2028 10.5906 12.2941 10.6363C12.0741 11.0049 11.8328 11.0989 11.4354 11.2408C11.2802 11.2973 11.2802 11.2973 11.1218 11.3549C10.6854 11.5061 10.3242 11.5568 9.86476 11.5572C9.80079 11.5583 9.73681 11.5594 9.6709 11.5606C9.29074 11.5616 9.02318 11.5106 8.67832 11.3595C7.47505 11.0238 6.30499 10.9503 5.0625 10.9979C5.33471 10.7257 5.61455 10.7119 5.98905 10.7041C6.85433 10.713 7.71463 10.9348 8.54838 11.1504C9.562 11.3881 10.6776 11.4125 11.5996 10.8761C11.7247 10.7957 11.8482 10.7127 11.9693 10.6264C12.0168 10.5998 12.0644 10.5733 12.1133 10.5459Z" fill="#EF7C8E"/>
<path d="M5.06274 11.0884C4.82201 11.2769 4.5827 11.4283 4.31133 11.5686C3.91074 11.7879 3.59023 12.0467 3.25483 12.3539C3.12506 12.4671 2.99512 12.5801 2.865 12.6929C2.68795 12.8473 2.51707 13.0013 2.35088 13.1674C2.20508 13.2312 2.05908 13.2946 1.91197 13.3553C1.68361 13.4535 1.46091 13.5605 1.23788 13.6703C1.16179 13.7077 1.0857 13.7451 1.0073 13.7836C0.802901 13.8852 0.802901 13.8852 0.633364 14.0714C0.603534 13.9521 0.573703 13.8328 0.542969 13.7098C0.642773 13.6656 0.642773 13.6656 0.744593 13.6205C0.876908 13.5612 0.876908 13.5612 1.0119 13.5008C1.09894 13.462 1.18598 13.4232 1.27567 13.3832C1.53959 13.2621 1.53959 13.2621 1.78485 13.1071C1.9893 12.9867 1.9893 12.9867 2.17009 12.9867C2.17009 12.927 2.17009 12.8673 2.17009 12.8059C2.35881 12.6419 2.54799 12.4885 2.74636 12.3369C2.80386 12.2925 2.86137 12.2482 2.92062 12.2024C4.6446 10.8793 4.6446 10.8793 5.06274 11.0884Z" fill="#ED7C8D"/>
<path d="M2.53125 2.32031C3.48583 2.32031 4.4404 2.32031 5.42391 2.32031C5.42391 2.43963 5.42391 2.55896 5.42391 2.68189C4.46933 2.68189 3.51475 2.68189 2.53125 2.68189C2.53125 2.56257 2.53125 2.44325 2.53125 2.32031Z" fill="#343434"/>
<path d="M5.69582 2.8623C5.75548 2.8623 5.81514 2.8623 5.87661 2.8623C5.8822 2.93315 5.8878 3.004 5.89356 3.07699C5.9178 3.1553 5.94203 3.2336 5.96701 3.31428C6.19086 3.43855 6.19086 3.43855 6.41898 3.49507C6.41898 3.58456 6.41898 3.67406 6.41898 3.76626C6.2717 3.89089 6.12091 4.01148 5.96701 4.12784C5.93718 4.1875 5.90735 4.24716 5.87661 4.30863C5.75729 4.24897 5.63797 4.18931 5.51503 4.12784C5.51503 4.06818 5.51503 4.00852 5.51503 3.94705C5.43113 3.9079 5.43113 3.9079 5.34554 3.86795C5.15345 3.76626 5.15345 3.76626 4.97266 3.58547C5.04164 3.53327 5.11062 3.48106 5.1817 3.42728C5.42544 3.23893 5.42544 3.23893 5.57718 3.0205C5.61633 2.96829 5.65548 2.91609 5.69582 2.8623Z" fill="#E4ABBC"/>
<path d="M5.24367 7.74365C5.30333 7.77348 5.36299 7.80331 5.42446 7.83405C5.30828 8.09321 5.19202 8.28386 4.97248 8.46682C4.91282 8.46682 4.85316 8.46682 4.79169 8.46682C4.79169 8.52648 4.79169 8.58614 4.79169 8.64761C4.67237 8.67744 4.55304 8.70727 4.43011 8.738C4.43011 8.79766 4.43011 8.85732 4.43011 8.91879C4.21542 9.15608 4.21542 9.15608 3.97813 9.37077C3.91847 9.37077 3.85881 9.37077 3.79734 9.37077C3.77869 9.41925 3.76005 9.46772 3.74084 9.51766C3.56841 9.8155 3.341 10.0572 3.07417 10.2747C3.01451 10.2747 2.95485 10.2747 2.89338 10.2747C2.86355 10.3642 2.83372 10.4537 2.80299 10.5459C2.68367 10.4863 2.56434 10.4266 2.44141 10.3651C2.48515 10.3279 2.5289 10.2907 2.57398 10.2523C3.03496 9.85522 3.46745 9.43774 3.89338 9.00354C4.32757 8.56098 4.76724 8.14077 5.24367 7.74365Z" fill="#E9D3B0"/>
<path d="M15.9088 8.01485C15.728 8.28603 15.728 8.28603 15.5017 8.34641C15.4104 8.36191 15.3192 8.37741 15.2252 8.39338C14.6803 8.51454 14.3833 8.72908 13.996 9.1229C13.8297 9.28038 13.8297 9.28038 13.5585 9.37078C13.4017 9.54873 13.2533 9.72731 13.1065 9.91315C13.0133 10.0306 12.9191 10.1474 12.824 10.2634C12.7809 10.3173 12.7378 10.3711 12.6934 10.4266C12.5642 10.5459 12.5642 10.5459 12.293 10.5459C12.3664 10.3708 12.3664 10.3708 12.4738 10.1843C12.5633 10.1545 12.6527 10.1247 12.7449 10.0939C12.7699 10.0435 12.7948 9.99303 12.8205 9.94105C12.971 9.64265 13.1991 9.42818 13.4342 9.19564C13.483 9.14735 13.5318 9.09907 13.5821 9.04932C14.2521 8.3995 14.9334 7.95389 15.9088 8.01485Z" fill="#EF7C90"/>
<path d="M7.67353 10.7507C8.00871 10.8296 8.33661 10.8733 8.67883 10.9075C8.67883 10.997 8.67883 11.0865 8.67883 11.1787C8.2555 11.1301 7.84105 11.0696 7.42379 10.9838C6.42469 10.7798 5.71099 10.7406 4.7438 11.0996C4.52063 11.1787 4.52063 11.1787 4.33984 11.1787C4.43024 10.9075 4.43024 10.9075 4.58914 10.8019C5.60496 10.3644 6.62378 10.4981 7.67353 10.7507Z" fill="#FEAC98"/>
<path d="M7.05065 6.1167C7.05065 6.17636 7.05065 6.23602 7.05065 6.29749C6.99099 6.29749 6.93133 6.29749 6.86986 6.29749C6.86986 6.35715 6.86986 6.41681 6.86986 6.47828C6.8102 6.47828 6.75054 6.47828 6.68907 6.47828C6.68394 6.5299 6.67881 6.58152 6.67353 6.63471C6.56459 6.93327 6.37813 7.04392 6.1241 7.22969C6.03787 7.2946 5.95164 7.3595 5.8628 7.42637C5.60432 7.56303 5.60432 7.56303 5.34585 7.53866C5.28199 7.51687 5.21813 7.49508 5.15234 7.47263C5.29223 7.08296 5.59001 6.88167 5.90941 6.64212C5.96161 6.6014 6.01381 6.56067 6.0676 6.51871C6.39701 6.26789 6.63676 6.1167 7.05065 6.1167Z" fill="#2F2F29"/>
<path d="M13.3782 2.68164C13.4378 2.71147 13.4975 2.7413 13.559 2.77204C13.4174 3.11953 13.1955 3.32883 12.9262 3.5856C12.8498 3.66576 12.7733 3.74593 12.6946 3.82853C12.5017 4.01151 12.356 4.11923 12.1126 4.21836C12.1126 4.27802 12.1126 4.33769 12.1126 4.39915C11.8257 4.67933 11.5705 4.84289 11.1691 4.87938C11.0927 4.87006 11.0163 4.86074 10.9375 4.85113C10.9375 4.79147 10.9375 4.73181 10.9375 4.67034C10.9956 4.64482 11.0538 4.6193 11.1137 4.59301C11.7696 4.27394 12.23 3.86874 12.7236 3.3433C12.8487 3.21053 12.9775 3.08133 13.107 2.95283C13.1667 2.95283 13.2263 2.95283 13.2878 2.95283C13.3176 2.86334 13.3474 2.77384 13.3782 2.68164Z" fill="#E9D3AF"/>
<path d="M14.1009 1.41602C14.1605 1.44585 14.2202 1.47568 14.2817 1.50641C14.2351 1.5437 14.1884 1.58099 14.1404 1.61941C14.0975 1.67161 14.0547 1.72381 14.0105 1.7776C14.0436 1.96666 14.0436 1.96666 14.1009 2.13918C14.0508 2.18276 14.0007 2.22634 13.949 2.27124C13.8836 2.32834 13.8181 2.38544 13.7506 2.44426C13.6856 2.5009 13.6206 2.55753 13.5536 2.61587C13.4313 2.72442 13.3126 2.83711 13.1969 2.95274C13.1671 2.83342 13.1373 2.71409 13.1065 2.59116C12.8977 2.79997 12.6889 3.00878 12.4738 3.22393C12.4141 3.19409 12.3544 3.16426 12.293 3.13353C12.5092 2.91469 12.7259 2.69638 12.9427 2.47816C13.0036 2.41652 13.0645 2.35488 13.1272 2.29137C13.4383 1.9787 13.7477 1.68211 14.1009 1.41602Z" fill="#3C3A33"/>
<path d="M12.6563 9.73242C12.7458 9.76225 12.8353 9.79208 12.9275 9.82282C12.7768 9.97348 12.6262 10.1241 12.4755 10.2748C12.414 10.3475 12.3524 10.4202 12.2891 10.4951C11.5491 11.1406 10.7413 11.3771 9.78058 11.3652C9.71794 11.3648 9.65531 11.3644 9.59078 11.364C9.43747 11.3629 9.28416 11.3613 9.13086 11.3595C9.13086 11.3297 9.13086 11.2999 9.13086 11.2691C9.24622 11.2582 9.36158 11.2472 9.48044 11.236C9.63133 11.2207 9.78223 11.2054 9.93312 11.19C10.0092 11.1829 10.0853 11.1758 10.1637 11.1685C10.2365 11.1609 10.3094 11.1534 10.3844 11.1456C10.4516 11.1389 10.5188 11.1323 10.5881 11.1255C10.7791 11.0998 10.7791 11.0998 10.9388 10.9076C11.1019 10.8338 11.1019 10.8338 11.2891 10.7663C11.3503 10.7438 11.4116 10.7213 11.4748 10.6982C11.6619 10.6364 11.6619 10.6364 11.86 10.5937C12.0407 10.5616 12.0407 10.5616 12.1196 10.3765C12.1475 10.3131 12.1755 10.2497 12.2043 10.1844C12.3399 10.0262 12.3399 10.0262 12.4755 9.91321C12.5352 9.91321 12.5948 9.91321 12.6563 9.91321C12.6563 9.85355 12.6563 9.79389 12.6563 9.73242Z" fill="#FEAB99"/>
<path d="M2.53125 4.76074C3.00854 4.76074 3.48583 4.76074 3.97758 4.76074C3.97758 4.88006 3.97758 4.99939 3.97758 5.12232C3.50029 5.12232 3.023 5.12232 2.53125 5.12232C2.53125 5.003 2.53125 4.88368 2.53125 4.76074Z" fill="#302F31"/>
<path d="M13.1073 2.50098C13.167 2.66235 13.167 2.66235 13.1977 2.86256C13.107 3.0204 13.107 3.0204 12.9661 3.17329C12.9163 3.22736 12.8666 3.28143 12.8153 3.33713C12.5925 3.55752 12.3594 3.75368 12.113 3.9473C12.0847 3.74956 12.0847 3.74956 12.113 3.49533C12.3051 3.27499 12.3051 3.27499 12.565 3.04335C12.6654 2.94413 12.7652 2.84431 12.8644 2.74391C12.9446 2.66374 13.0247 2.58358 13.1073 2.50098Z" fill="#282419"/>
<path d="M4.16776 11.2173C4.22404 11.2344 4.28032 11.2515 4.33831 11.2692C4.25534 11.3281 4.17238 11.3871 4.0869 11.4479C3.50258 11.8638 2.92069 12.2815 2.34961 12.7155C2.55903 12.0492 3.0349 11.7665 3.61515 11.45C3.6804 11.3959 3.74565 11.3418 3.81289 11.2861C3.97673 11.1788 3.97673 11.1788 4.16776 11.2173Z" fill="#FEAB97"/>
<path d="M5.69552 3.22412C6.1249 3.30322 6.1249 3.30322 6.32829 3.40491C6.32829 3.4944 6.32829 3.5839 6.32829 3.6761C6.06557 3.92944 5.98585 3.94728 5.60513 3.94728C5.49595 3.61976 5.55603 3.52772 5.69552 3.22412Z" fill="#F29EB5"/>
<path d="M12.2042 3.22412C12.2042 3.55867 12.1376 3.81387 12.0234 4.12808C11.8313 4.25802 11.8313 4.25802 11.6618 4.30887C11.5723 4.21938 11.4828 4.12988 11.3906 4.03768C11.6618 3.76649 11.933 3.49531 12.2042 3.22412Z" fill="#353329"/>
<path d="M2.07969 12.7158C2.16918 12.7457 2.25867 12.7755 2.35088 12.8062C2.29122 12.8062 2.23156 12.8062 2.17009 12.8062C2.17009 12.8659 2.17009 12.9255 2.17009 12.987C1.63897 13.2924 1.14406 13.5766 0.542969 13.7102C0.633364 13.439 0.633364 13.439 0.781316 13.3595C0.842492 13.3391 0.903668 13.3188 0.966698 13.2977C1.03137 13.2756 1.09604 13.2535 1.16267 13.2307C1.22664 13.2099 1.29062 13.1892 1.35653 13.1678C1.46093 13.1324 1.56534 13.097 1.67291 13.0605C1.74749 13.0362 1.82206 13.012 1.8989 12.987C1.8989 12.9273 1.8989 12.8677 1.8989 12.8062C1.95856 12.7764 2.01822 12.7466 2.07969 12.7158Z" fill="#FDAC99"/>
<path d="M6.14669 6.83984C6.23619 6.86967 6.32568 6.8995 6.41788 6.93024C6.29312 7.03923 6.1666 7.1462 6.03935 7.25227C5.96908 7.31205 5.89882 7.37183 5.82643 7.43342C5.60432 7.56301 5.60432 7.56301 5.35114 7.53723C5.28554 7.51591 5.21994 7.49458 5.15234 7.47261C5.21661 7.29606 5.21661 7.29606 5.33313 7.11103C5.52876 7.05595 5.52876 7.05595 5.75121 7.04323C5.82509 7.03811 5.89897 7.03298 5.97508 7.0277C6.03172 7.02537 6.08835 7.02304 6.14669 7.02063C6.14669 6.96097 6.14669 6.90131 6.14669 6.83984Z" fill="#2E281D"/>
<path d="M1.44692 11.269C1.41896 11.3231 1.39099 11.3772 1.36218 11.4329C1.2569 11.6387 1.2569 11.6387 1.17574 11.9018C1.11608 11.9018 1.05642 11.9018 0.994946 11.9018C0.994946 11.9615 0.994946 12.0211 0.994946 12.0826C0.905455 12.0826 0.815963 12.0826 0.72376 12.0826C0.693929 12.1423 0.664099 12.2019 0.633364 12.2634C0.635229 12.1925 0.637093 12.1217 0.639014 12.0487C0.650254 11.8131 0.650254 11.8131 0.542969 11.6306C0.659501 11.5699 0.776316 11.5098 0.893251 11.4498C0.958272 11.4163 1.02329 11.3827 1.09029 11.3481C1.26613 11.269 1.26613 11.269 1.44692 11.269Z" fill="#EAD0AA"/>
<path d="M13.3791 2.68164C13.4388 2.71147 13.4984 2.7413 13.5599 2.77204C13.3652 3.24992 12.9794 3.56559 12.5656 3.85678C12.5059 3.79712 12.4462 3.73746 12.3848 3.67599C12.501 3.55492 12.6179 3.43452 12.735 3.31441C12.8326 3.21373 12.8326 3.21373 12.9321 3.11102C13.1079 2.95283 13.1079 2.95283 13.2887 2.95283C13.3186 2.86334 13.3484 2.77384 13.3791 2.68164Z" fill="#DBC6A4"/>
<path d="M15.909 0.783203C15.9388 0.783203 15.9686 0.783203 15.9994 0.783203C15.9994 1.08151 15.9994 1.37981 15.9994 1.68716C15.9024 1.66851 15.8055 1.64987 15.7056 1.63066C15.3778 1.59788 15.2687 1.59824 15.005 1.77755C15.005 1.71789 15.005 1.65823 15.005 1.59676C14.9453 1.56693 14.8857 1.5371 14.8242 1.50637C14.9369 1.46042 15.05 1.4154 15.1632 1.37077C15.2261 1.3456 15.289 1.32043 15.3539 1.2945C15.5474 1.23518 15.5474 1.23518 15.909 1.23518C15.909 1.08603 15.909 0.936875 15.909 0.783203Z" fill="#E6D5B8"/>
<path d="M2.44106 9.73242C2.44106 10.0644 2.36848 10.3232 2.26027 10.6364C2.17078 10.696 2.08129 10.7557 1.98909 10.8172C1.92943 10.7277 1.86976 10.6382 1.8083 10.546C1.7188 10.546 1.62931 10.546 1.53711 10.546C1.83541 10.2775 2.13372 10.009 2.44106 9.73242Z" fill="#373631"/>
<path d="M3.70639 9.82275C3.79588 9.85258 3.88537 9.88241 3.97758 9.91315C3.80514 10.0929 3.6318 10.2716 3.4578 10.4499C3.38474 10.5263 3.38474 10.5263 3.3102 10.6044C3.26243 10.653 3.21465 10.7017 3.16543 10.7518C3.1001 10.8192 3.1001 10.8192 3.03346 10.8881C2.8696 11.016 2.73407 11.0514 2.53125 11.0883C2.84834 10.7102 3.17137 10.3479 3.5256 10.0035C3.58526 9.94388 3.64492 9.88422 3.70639 9.82275Z" fill="#F7C392"/>
<path d="M15.7284 7.74365C15.7583 7.83314 15.7881 7.92264 15.8188 8.01484C15.7437 8.03337 15.6685 8.05189 15.5911 8.07098C15.4437 8.10751 15.4437 8.10751 15.2934 8.14478C15.1471 8.18096 15.1471 8.18096 14.9978 8.21788C14.8178 8.2644 14.6393 8.31761 14.4629 8.37642C14.5187 8.20552 14.5187 8.20552 14.6437 8.01484C14.8986 7.92021 14.8986 7.92021 15.1974 7.85665C15.2964 7.83474 15.3954 7.81283 15.4975 7.79026C15.5737 7.77488 15.6499 7.7595 15.7284 7.74365Z" fill="#FEB19B"/>
<path d="M3.61485 11.8115C3.67451 11.8414 3.73417 11.8712 3.79564 11.9019C3.72106 11.9634 3.64649 12.025 3.56965 12.0884C2.94298 12.6097 2.94298 12.6097 2.34931 13.1675C2.25982 13.1376 2.17033 13.1078 2.07812 13.0771C2.12823 13.0345 2.17834 12.992 2.22996 12.9482C2.29545 12.8919 2.36094 12.8356 2.42841 12.7776C2.49343 12.722 2.55845 12.6665 2.62544 12.6092C2.81863 12.4406 2.81863 12.4406 2.98208 12.1731C3.13142 12.1096 3.28212 12.0493 3.43406 11.9923C3.49372 11.9327 3.55338 11.873 3.61485 11.8115Z" fill="#F37294"/>
<path d="M3.79713 8.37646C3.97611 8.43613 4.15509 8.49579 4.3395 8.55726C4.19035 8.73624 4.0412 8.91522 3.88752 9.09963C3.84651 9.05675 3.80549 9.01387 3.76323 8.96969C3.62243 8.82028 3.62243 8.82028 3.43555 8.73805C3.55487 8.61872 3.67419 8.4994 3.79713 8.37646Z" fill="#403D34"/>
<path d="M1.17519 10.8174C1.26468 10.9367 1.35417 11.056 1.44637 11.179C1.01699 11.5405 1.01699 11.5405 0.813603 11.5405C0.753942 11.4212 0.694281 11.3019 0.632812 11.179C0.811796 11.0596 0.990779 10.9403 1.17519 10.8174Z" fill="#38322C"/>
<path d="M9.58109 5.12229C9.4907 5.30308 9.4907 5.30308 9.26471 5.39913C8.889 5.49976 8.52148 5.54161 8.13477 5.57427C8.1646 5.48478 8.19443 5.39528 8.22516 5.30308C8.32397 5.29003 8.42279 5.27698 8.5246 5.26353C9.47017 5.11929 9.47017 5.11929 9.58109 5.12229Z" fill="#2B261C"/>
<path d="M8.31606 5.66455C8.34589 5.72421 8.37573 5.78387 8.40646 5.84534C8.3468 5.84534 8.28714 5.84534 8.22567 5.84534C8.22567 5.905 8.22567 5.96466 8.22567 6.02613C8.16601 6.02613 8.10635 6.02613 8.04488 6.02613C8.0225 6.08393 8.00013 6.14173 7.97708 6.20127C7.86409 6.38771 7.86409 6.38771 7.672 6.45551C7.5881 6.4667 7.5881 6.4667 7.5025 6.47811C7.47267 6.38862 7.44284 6.29913 7.41211 6.20692C7.71041 6.02794 8.00872 5.84896 8.31606 5.66455Z" fill="#E3CCAA"/>
<path d="M0.270163 13.5293C0.47532 13.837 0.483994 13.9962 0.507451 14.3598C0.51421 14.458 0.520968 14.5563 0.527932 14.6575C0.534574 14.7702 0.534574 14.7702 0.54135 14.8852C0.481689 14.8852 0.422028 14.8852 0.360559 14.8852C0.360559 14.8256 0.360559 14.7659 0.360559 14.7044C0.300898 14.6746 0.241237 14.6448 0.179768 14.614C0.172392 14.2379 0.181351 13.8956 0.270163 13.5293Z" fill="#371D26"/>
<path d="M0.814155 12.4443C0.873816 12.4742 0.933477 12.504 0.994946 12.5347C0.905455 12.669 0.905455 12.669 0.814155 12.8059C0.79924 12.9141 0.784325 13.0222 0.768957 13.1336C0.746585 13.2846 0.746585 13.2846 0.72376 13.4387C0.634268 13.4834 0.634268 13.4834 0.542969 13.5291C0.542969 13.2009 0.542969 12.8728 0.542969 12.5347C0.63246 12.5049 0.721952 12.4751 0.814155 12.4443Z" fill="#F1BD94"/>
<path d="M5.06301 7.29199C5.09284 7.35165 5.12267 7.41131 5.1534 7.47278C5.3357 7.57525 5.3357 7.57525 5.51498 7.65357C5.46045 7.66453 5.40592 7.67548 5.34973 7.68677C5.27749 7.70191 5.20524 7.71706 5.1308 7.73267C5.02383 7.75469 5.02383 7.75469 4.9147 7.77716C4.70429 7.8336 4.53055 7.91106 4.33984 8.01516C4.5809 7.7741 4.82195 7.53305 5.06301 7.29199Z" fill="#383835"/>
<path d="M9.31131 4.94142C9.09193 5.27049 8.96761 5.30992 8.58814 5.3934C8.37346 5.3143 8.37346 5.3143 8.22656 5.21261C8.88516 4.90268 8.88516 4.90268 9.31131 4.94142Z" fill="#393C39"/>
<path d="M2.35122 10.4556C2.38105 10.5152 2.41088 10.5749 2.44162 10.6364C2.13211 10.9823 1.89859 11.1537 1.44727 11.2691C1.73378 10.9744 2.02574 10.7067 2.35122 10.4556Z" fill="#DEC7A8"/>
<path d="M10.7578 4.85107C10.7578 5.12226 10.7578 5.12226 10.6222 5.2748C10.5774 5.31396 10.5327 5.35311 10.4866 5.39345C10.3673 5.33379 10.2479 5.27413 10.125 5.21266C10.125 5.153 10.125 5.09333 10.125 5.03187C10.5544 4.85107 10.5544 4.85107 10.7578 4.85107Z" fill="#E9D0AB"/>
<path d="M9.2207 4.85107C9.36613 4.87624 9.36613 4.87624 9.51449 4.90192C9.79959 4.93518 9.95274 4.94551 10.2151 4.85107C10.2449 4.91074 10.2747 4.9704 10.3054 5.03187C9.63791 5.23213 9.63791 5.23213 9.3563 5.13356C9.31155 5.1 9.2668 5.06644 9.2207 5.03187C9.2207 4.9722 9.2207 4.91254 9.2207 4.85107Z" fill="#393124"/>
<path d="M14.1925 1.50635C14.282 1.50635 14.3715 1.50635 14.4637 1.50635C14.4411 1.67584 14.4411 1.67584 14.3733 1.86793C14.1869 1.98092 14.1869 1.98092 14.0117 2.04872C14.0117 1.68714 14.0117 1.68714 14.1925 1.50635Z" fill="#28221A"/>
<path d="M11.6607 4.57978C11.5712 4.71402 11.5712 4.71402 11.4799 4.85097C11.1974 4.86792 11.1974 4.86792 10.9375 4.85097C10.9375 4.79131 10.9375 4.73165 10.9375 4.67018C11.2148 4.50183 11.3531 4.46994 11.6607 4.57978Z" fill="#DECBAB"/>
<path d="M13.6492 8.82861C13.7089 8.85844 13.7686 8.88827 13.83 8.91901C13.5168 9.18748 13.5168 9.18748 13.1973 9.46138C13.1973 9.34206 13.1973 9.22274 13.1973 9.0998C13.2569 9.0998 13.3166 9.0998 13.3781 9.0998C13.3781 9.04014 13.3781 8.98048 13.3781 8.91901C13.4675 8.88918 13.557 8.85935 13.6492 8.82861Z" fill="#FEA999"/>
<path d="M8.22512 5.30322C8.19529 5.42254 8.16546 5.54187 8.13472 5.6648C7.92591 5.6648 7.71709 5.6648 7.50195 5.6648C7.97358 5.30322 7.97358 5.30322 8.22512 5.30322Z" fill="#3D3D3E"/>
<path d="M13.9207 2.22949C14.0102 2.25932 14.0997 2.28915 14.1919 2.31989C14.0428 2.46904 13.8936 2.61819 13.7399 2.77187C13.6504 2.74203 13.561 2.7122 13.4688 2.68147C13.6179 2.53232 13.7671 2.38316 13.9207 2.22949Z" fill="#F0DAB5"/>
<path d="M15.9093 0.783186C15.9093 0.872678 15.9093 0.962169 15.9093 1.05437C15.8384 1.03759 15.7676 1.02081 15.6946 1.00353C15.4599 0.940508 15.4599 0.940508 15.2765 1.05437C15.2168 0.994712 15.1572 0.935051 15.0957 0.873582C15.3846 0.777268 15.6071 0.776472 15.9093 0.783186Z" fill="#494B49"/>
<path d="M5.87581 8.37646C5.9653 8.4063 6.05479 8.43613 6.14699 8.46686C5.96801 8.58618 5.78903 8.7055 5.60462 8.82844C5.54496 8.76878 5.4853 8.70912 5.42383 8.64765C5.63287 8.50641 5.63287 8.50641 5.87581 8.37646Z" fill="#FAC495"/>
</svg>
